<?xml version="1.0" encoding="UTF-8" standalone="no"?>
<!-- Created with Inkscape (http://www.inkscape.org/) -->

<svg
   xmlns:dc="http://purl.org/dc/elements/1.1/"
   xmlns:cc="http://creativecommons.org/ns#"
   xmlns:rdf="http://www.w3.org/1999/02/22-rdf-syntax-ns#"
   xmlns:svg="http://www.w3.org/2000/svg"
   xmlns="http://www.w3.org/2000/svg"
   xmlns:sodipodi="http://sodipodi.sourceforge.net/DTD/sodipodi-0.dtd"
   xmlns:inkscape="http://www.inkscape.org/namespaces/inkscape"
   width="42.606747mm"
   height="41.555027mm"
   viewBox="0 0 42.606747 41.555027"
   version="1.1"
   id="svg4001"
   inkscape:version="0.92.4 (5da689c313, 2019-01-14)"
   sodipodi:docname="github.svg">
  <defs
     id="defs3995" />
  <sodipodi:namedview
     id="base"
     pagecolor="#ffffff"
     bordercolor="#666666"
     borderopacity="1.0"
     inkscape:pageopacity="0.0"
     inkscape:pageshadow="2"
     inkscape:zoom="1.979899"
     inkscape:cx="189.05223"
     inkscape:cy="162.64885"
     inkscape:document-units="mm"
     inkscape:current-layer="layer1"
     showgrid="false"
     inkscape:window-width="960"
     inkscape:window-height="1080"
     inkscape:window-x="2880"
     inkscape:window-y="0"
     inkscape:window-maximized="0" />
  <metadata
     id="metadata3998">
    <rdf:RDF>
      <cc:Work
         rdf:about="">
        <dc:format>image/svg+xml</dc:format>
        <dc:type
           rdf:resource="http://purl.org/dc/dcmitype/StillImage" />
        <dc:title></dc:title>
      </cc:Work>
    </rdf:RDF>
  </metadata>
  <g
     inkscape:label="Layer 1"
     inkscape:groupmode="layer"
     id="layer1"
     transform="translate(-73.190675,-115.20463)">
    <path
       d="m 94.494219,115.20463 c -11.764081,0 -21.303544,9.5377 -21.303544,21.30354 0,9.41247 6.104113,17.39794 14.568663,20.21487 1.064684,0.19721 1.455561,-0.46214 1.455561,-1.02482 0,-0.508 -0.01976,-2.18616 -0.02893,-3.96628 -5.926667,1.2887 -7.177264,-2.51354 -7.177264,-2.51354 -0.969081,-2.46239 -2.365375,-3.11714 -2.365375,-3.11714 -1.93287,-1.32221 0.145697,-1.29505 0.145697,-1.29505 2.139244,0.14993 3.265664,2.19569 3.265664,2.19569 1.900061,3.25649 4.983692,2.31493 6.199364,1.77059 0.191205,-1.37689 0.743303,-2.31704 1.35255,-2.84868 -4.731808,-0.53869 -9.705975,-2.36537 -9.705975,-10.5283 0,-2.32586 0.832203,-4.22628 2.194983,-5.71817 -0.221192,-0.53693 -0.950383,-2.70334 0.206375,-5.63775 0,0 1.788936,-0.57255 5.859992,2.1837 1.69933,-0.47202 3.52178,-0.70873 5.332236,-0.71685 1.810455,0.008 3.634316,0.24483 5.336823,0.71685 4.066111,-2.75625 5.852581,-2.1837 5.852581,-2.1837 1.15958,2.93441 0.43004,5.10082 0.20885,5.63775 1.36595,1.49189 2.19251,3.39231 2.19251,5.71817 0,8.18233 -4.98369,9.98396 -9.727495,10.51137 0.764117,0.6611 1.444979,1.95756 1.444979,3.94511 0,2.85045 -0.02469,5.14456 -0.02469,5.84623 0,0.56692 0.383466,1.2312 1.463326,1.022 8.45997,-2.82011 14.55632,-10.80276 14.55632,-20.21205 -1e-5,-11.76584 -9.53806,-21.30354 -21.303201,-21.30354"
       style="fill:#1b1817;fill-opacity:1;fill-rule:evenodd;stroke:none;stroke-width:0.03527778"
       id="path3783"
       inkscape:connector-curvature="0" />
    <path
       d="m 81.259408,145.79187 c -0.04692,0.10619 -0.213431,0.13758 -0.365125,0.0649 -0.154517,-0.0695 -0.2413,-0.21378 -0.191206,-0.31997 0.04586,-0.10865 0.212725,-0.13899 0.366889,-0.0667 0.15487,0.0699 0.243064,0.21555 0.189442,0.32174 v 0"
       style="fill:#1b1817;fill-opacity:1;fill-rule:nonzero;stroke:none;stroke-width:0.03527778"
       id="path3785"
       inkscape:connector-curvature="0" />
    <path
       d="m 82.122302,146.75425 c -0.1016,0.0942 -0.300214,0.0504 -0.434975,-0.0984 -0.139347,-0.14852 -0.165453,-0.34714 -0.06244,-0.44274 0.104775,-0.0938 0.297392,-0.0497 0.437092,0.0984 0.139347,0.15029 0.166511,0.34749 0.06033,0.44274 v 0"
       style="fill:#1b1817;fill-opacity:1;fill-rule:nonzero;stroke:none;stroke-width:0.03527778"
       id="path3787"
       inkscape:connector-curvature="0" />
    <path
       d="m 82.962266,147.98121 c -0.130528,0.0907 -0.343958,0.006 -0.475897,-0.1838 -0.130528,-0.18944 -0.130528,-0.41663 0.0028,-0.50765 0.132291,-0.091 0.342547,-0.009 0.47625,0.17886 0.130175,0.19262 0.130175,0.41981 -0.0032,0.51259 v 0"
       style="fill:#1b1817;fill-opacity:1;fill-rule:nonzero;stroke:none;stroke-width:0.03527778"
       id="path3789"
       inkscape:connector-curvature="0" />
    <path
       d="m 84.113027,149.16654 c -0.116769,0.12877 -0.365477,0.0942 -0.547511,-0.0815 -0.186266,-0.1718 -0.238125,-0.41557 -0.121002,-0.54433 0.11818,-0.12912 0.3683,-0.0928 0.551744,0.0815 0.184856,0.17145 0.2413,0.41698 0.116769,0.54433 v 0"
       style="fill:#1b1817;fill-opacity:1;fill-rule:nonzero;stroke:none;stroke-width:0.03527778"
       id="path3791"
       inkscape:connector-curvature="0" />
    <path
       d="m 85.700527,149.85481 c -0.05151,0.16687 -0.291041,0.24271 -0.532341,0.1718 -0.240947,-0.073 -0.398639,-0.26846 -0.349956,-0.43709 0.0501,-0.16792 0.290689,-0.24694 0.533753,-0.17109 0.240594,0.0727 0.398639,0.2667 0.348544,0.43638 v 0"
       style="fill:#1b1817;fill-opacity:1;fill-rule:nonzero;stroke:none;stroke-width:0.03527778"
       id="path3793"
       inkscape:connector-curvature="0" />
    <path
       d="m 87.443955,149.98252 c 0.006,0.17568 -0.198614,0.32138 -0.451908,0.32455 -0.254706,0.006 -0.460728,-0.13652 -0.46355,-0.30938 0,-0.17745 0.200025,-0.32174 0.45473,-0.32597 0.253295,-0.005 0.460728,0.13617 0.460728,0.3108 v 0"
       style="fill:#1b1817;fill-opacity:1;fill-rule:nonzero;stroke:none;stroke-width:0.03527778"
       id="path3795"
       inkscape:connector-curvature="0" />
    <path
       d="m 89.06638,149.70629 c 0.03034,0.17145 -0.145697,0.34749 -0.397228,0.39441 -0.247297,0.0452 -0.47625,-0.0607 -0.507647,-0.23072 -0.03069,-0.17568 0.14852,-0.35172 0.395464,-0.39723 0.251883,-0.0437 0.477308,0.0593 0.509411,0.23354 v 0"
       style="fill:#1b1817;fill-opacity:1;fill-rule:nonzero;stroke:none;stroke-width:0.03527778"
       id="path3797"
       inkscape:connector-curvature="0" />
  </g>
</svg>
