<?xml version="1.0" encoding="UTF-8" standalone="no"?>
<!-- Created with Inkscape (http://www.inkscape.org/) -->

<svg
   xmlns:dc="http://purl.org/dc/elements/1.1/"
   xmlns:cc="http://creativecommons.org/ns#"
   xmlns:rdf="http://www.w3.org/1999/02/22-rdf-syntax-ns#"
   xmlns:svg="http://www.w3.org/2000/svg"
   xmlns="http://www.w3.org/2000/svg"
   xmlns:sodipodi="http://sodipodi.sourceforge.net/DTD/sodipodi-0.dtd"
   xmlns:inkscape="http://www.inkscape.org/namespaces/inkscape"
   width="11.493mm"
   height="11.209466mm"
   viewBox="0 0 11.493 11.209466"
   version="1.1"
   id="svg4057"
   inkscape:version="0.92.4 (5da689c313, 2019-01-14)"
   sodipodi:docname="github_s.svg">
  <defs
     id="defs4051" />
  <sodipodi:namedview
     id="base"
     pagecolor="#ffffff"
     bordercolor="#666666"
     borderopacity="1.0"
     inkscape:pageopacity="0.0"
     inkscape:pageshadow="2"
     inkscape:zoom="0.35"
     inkscape:cx="-166.85211"
     inkscape:cy="-98.81676"
     inkscape:document-units="mm"
     inkscape:current-layer="layer1"
     showgrid="false"
     inkscape:window-width="960"
     inkscape:window-height="1080"
     inkscape:window-x="2880"
     inkscape:window-y="0"
     inkscape:window-maximized="0" />
  <metadata
     id="metadata4054">
    <rdf:RDF>
      <cc:Work
         rdf:about="">
        <dc:format>image/svg+xml</dc:format>
        <dc:type
           rdf:resource="http://purl.org/dc/dcmitype/StillImage" />
        <dc:title></dc:title>
      </cc:Work>
    </rdf:RDF>
  </metadata>
  <g
     inkscape:label="Layer 1"
     inkscape:groupmode="layer"
     id="layer1"
     transform="translate(-149.97962,-111.4786)">
    <path
       d="m 155.72566,111.4786 c -3.17288,0 -5.74604,2.57281 -5.74604,5.74675 0,2.53859 1.64641,4.69265 3.92994,5.45289 0.28752,0.0526 0.39229,-0.12489 0.39229,-0.27729 0,-0.13652 -0.005,-0.49777 -0.008,-0.97719 -1.59844,0.34713 -1.93569,-0.77047 -1.93569,-0.77047 -0.26141,-0.66393 -0.63818,-0.84067 -0.63818,-0.84067 -0.52175,-0.3563 0.0395,-0.34925 0.0395,-0.34925 0.5768,0.0406 0.88019,0.59232 0.88019,0.59232 0.51258,0.87806 1.34514,0.62441 1.67251,0.4773 0.0522,-0.37112 0.20074,-0.62441 0.36478,-0.76799 -1.276,-0.14535 -2.61761,-0.63818 -2.61761,-2.84022 0,-0.62759 0.22401,-1.14017 0.5916,-1.54199 -0.0593,-0.14534 -0.25647,-0.72954 0.0565,-1.52082 0,0 0.48225,-0.15452 1.58009,0.58878 0.45826,-0.12735 0.95003,-0.19085 1.43863,-0.19332 0.48824,0.002 0.97966,0.066 1.43863,0.19332 1.09713,-0.7433 1.57868,-0.58878 1.57868,-0.58878 0.31362,0.79128 0.11641,1.37548 0.0575,1.52082 0.3683,0.40182 0.59055,0.9144 0.59055,1.54199 0,2.20769 -1.34373,2.69346 -2.62361,2.83563 0.20602,0.17745 0.38982,0.52811 0.38982,1.06433 0,0.768 -0.007,1.38783 -0.007,1.57621 0,0.15381 0.10372,0.33267 0.39511,0.27658 2.28177,-0.76165 3.92677,-2.91394 3.92677,-5.45218 0,-3.17394 -2.57316,-5.74675 -5.7471,-5.74675"
       style="fill:#1b1817;fill-opacity:1;fill-rule:evenodd;stroke:none;stroke-width:0.03527778"
       id="path3781"
       inkscape:connector-curvature="0" />
  </g>
</svg>
