<?xml version="1.0" standalone="no"?>
<!DOCTYPE svg PUBLIC "-//W3C//DTD SVG 20010904//EN"
 "http://www.w3.org/TR/2001/REC-SVG-20010904/DTD/svg10.dtd">
<svg version="1.0" xmlns="http://www.w3.org/2000/svg"
 width="1165.000000pt" height="1165.000000pt" viewBox="0 0 1165.000000 1165.000000"
 preserveAspectRatio="xMidYMid meet">
<metadata>
Created by potrace 1.11, written by Peter Selinger 2001-2013
</metadata>
<g transform="translate(0.000000,1165.000000) scale(0.100000,-0.100000)"
fill="#000000" stroke="none">
<path d="M9977 11313 c-3 -3 -3 -12 1 -21 4 -14 3 -15 -9 -6 -21 16 -63 -7
-46 -26 10 -10 8 -10 -10 -1 -23 12 -29 6 -24 -22 1 -5 -3 -6 -9 -2 -6 3 -8
12 -4 18 3 7 -3 1 -14 -12 -19 -23 -20 -23 -31 -5 -11 18 -11 18 -9 -1 2 -16
-3 -20 -24 -19 -15 1 -25 -3 -22 -8 3 -4 11 -5 17 -2 7 4 8 3 4 -2 -5 -5 -16
-9 -25 -9 -10 0 -16 -6 -14 -15 3 -11 -1 -10 -16 3 -15 14 -22 15 -28 6 -4 -7
-3 -10 3 -6 6 4 13 1 16 -6 5 -14 -20 -16 -41 -4 -8 6 -10 3 -5 -10 6 -16 5
-16 -10 -4 -15 12 -17 12 -11 -4 5 -13 4 -16 -4 -11 -7 4 -12 2 -12 -5 0 -8
-4 -8 -15 1 -13 11 -14 10 -8 -6 6 -17 5 -17 -10 -5 -15 12 -17 12 -11 -3 5
-14 2 -16 -20 -12 -15 3 -24 1 -21 -3 2 -5 -3 -15 -12 -22 -15 -12 -16 -12
-10 5 6 16 5 17 -8 6 -8 -7 -13 -16 -10 -20 3 -5 0 -12 -6 -16 -8 -4 -9 -3 -5
4 4 7 1 12 -9 12 -9 0 -14 -4 -10 -9 3 -5 0 -13 -6 -17 -7 -4 -9 -3 -5 4 3 6
2 13 -4 17 -5 3 -10 -3 -10 -14 0 -12 -4 -21 -10 -21 -5 0 -10 5 -10 11 0 5
-5 7 -11 4 -6 -4 -8 -14 -5 -22 3 -8 1 -11 -5 -8 -5 4 -18 1 -27 -6 -15 -12
-15 -12 1 7 26 32 20 39 -8 8 -13 -14 -22 -30 -20 -34 3 -5 -3 -7 -12 -6 -10
2 -21 -2 -25 -8 -5 -7 -8 -6 -8 4 0 10 -5 7 -15 -7 -12 -18 -20 -20 -39 -14
-14 6 -28 5 -37 -1 -11 -8 -11 -9 3 -4 10 3 20 1 23 -4 4 -6 -6 -10 -20 -10
-15 0 -24 -4 -20 -10 4 -6 -1 -7 -11 -3 -12 4 -15 3 -10 -5 4 -7 3 -12 -3 -12
-5 0 -12 6 -14 13 -4 10 -6 10 -6 0 -1 -7 -8 -13 -17 -13 -8 0 -13 -4 -10 -9
8 -13 -16 -20 -35 -10 -13 6 -16 3 -14 -14 2 -17 -3 -23 -17 -24 -20 -2 -20
-1 -2 13 18 14 17 14 -4 4 -15 -8 -21 -17 -18 -27 5 -13 4 -14 -9 -3 -8 7 -12
17 -8 23 3 6 1 7 -6 3 -6 -4 -8 -12 -5 -18 5 -7 1 -9 -9 -5 -16 6 -23 -8 -18
-36 1 -5 -3 -5 -9 -2 -6 4 -9 14 -6 24 5 14 4 13 -8 -1 -15 -20 -31 -25 -20
-6 5 7 3 8 -5 4 -7 -5 -10 -13 -8 -20 3 -7 -4 -13 -14 -13 -12 -1 -17 3 -13
10 3 7 -1 4 -9 -5 -8 -10 -23 -16 -36 -13 -12 2 -19 0 -16 -6 4 -5 11 -7 16
-4 5 4 9 4 9 1 0 -3 -10 -10 -21 -17 -17 -9 -20 -8 -14 2 6 8 4 10 -4 5 -7 -5
-10 -13 -8 -20 3 -7 -4 -12 -18 -12 -16 0 -21 5 -18 16 3 10 1 10 -7 -3 -6 -9
-8 -22 -5 -27 3 -6 -1 -7 -9 -4 -9 3 -13 11 -9 17 3 6 1 7 -6 3 -9 -6 -9 -11
0 -22 10 -12 8 -13 -14 -5 -18 7 -28 7 -33 -1 -5 -7 -2 -8 7 -4 8 4 6 1 -3 -7
-10 -8 -14 -18 -10 -22 4 -5 2 -5 -5 -1 -7 4 -10 14 -7 24 2 9 -1 7 -7 -5 -7
-13 -16 -23 -21 -23 -5 0 -6 6 -3 13 4 6 -7 -3 -24 -22 -17 -18 -31 -30 -31
-24 0 5 6 15 13 22 10 10 9 11 -5 6 -9 -4 -18 -16 -22 -27 -4 -17 -8 -19 -19
-10 -10 9 -18 8 -33 -4 -10 -8 -13 -13 -7 -9 9 4 11 1 7 -9 -5 -13 -9 -12 -25
7 -11 12 -18 18 -17 12 5 -22 -22 -54 -40 -48 -15 6 -16 5 -2 -12 15 -18 14
-18 -13 0 -15 10 -30 15 -34 11 -3 -3 -1 -6 5 -6 7 0 12 -5 12 -11 0 -5 -4 -7
-10 -4 -5 3 -10 2 -10 -3 0 -6 -7 -13 -16 -16 -15 -6 -15 -4 -3 10 13 16 12
16 -8 5 -15 -7 -20 -17 -16 -29 5 -14 3 -14 -9 2 -12 15 -17 16 -23 6 -6 -9
-4 -11 5 -5 9 6 11 4 6 -4 -5 -7 -14 -10 -21 -7 -20 7 -26 -5 -13 -23 7 -9 2
-7 -11 4 -14 11 -21 14 -17 8 4 -7 2 -13 -4 -13 -6 0 -8 -5 -4 -12 4 -6 3 -8
-4 -4 -6 3 -14 2 -17 -4 -5 -8 -11 -7 -21 1 -11 9 -14 9 -14 -1 0 -7 -7 -10
-16 -6 -15 6 -15 4 -3 -11 7 -10 9 -15 5 -11 -5 4 -16 2 -24 -5 -11 -8 -14 -9
-9 0 5 8 1 11 -12 10 -15 -1 -17 -4 -9 -14 6 -7 7 -13 2 -14 -5 0 -18 -2 -29
-4 -10 -2 -26 2 -34 8 -12 9 -13 9 -7 -1 4 -7 1 -15 -8 -18 -9 -3 -16 -10 -16
-16 0 -5 5 -6 12 -2 7 4 8 3 4 -5 -4 -6 -12 -9 -17 -5 -5 3 -18 0 -27 -7 -12
-10 -11 -7 3 11 l20 25 -20 -15 c-25 -19 -35 -32 -30 -41 3 -3 -9 -5 -26 -4
-24 2 -29 -1 -24 -13 3 -9 3 -13 -1 -9 -4 4 -13 2 -20 -4 -8 -7 -14 -6 -20 2
-4 7 -3 9 4 5 6 -3 13 -2 16 3 4 5 -1 8 -9 7 -9 -1 -15 -6 -14 -11 1 -12 -29
-27 -41 -20 -9 6 -14 -7 -11 -27 0 -4 -5 -5 -13 -2 -8 3 -17 1 -20 -5 -4 -7
-15 -7 -31 -1 -14 5 -24 6 -24 2 1 -4 1 -16 0 -27 -1 -16 -3 -17 -10 -6 -7 11
-14 10 -40 -8 -17 -13 -28 -27 -25 -33 4 -7 2 -8 -5 -4 -9 6 -9 11 -1 21 9 11
7 12 -9 8 -12 -3 -19 -9 -16 -13 3 -4 -3 -14 -12 -21 -10 -8 -14 -9 -10 -2 4
6 3 14 -3 18 -5 3 -10 -1 -10 -9 0 -10 -6 -13 -17 -10 -15 5 -15 3 1 -10 23
-18 18 -20 -18 -7 -21 9 -24 7 -21 -7 2 -14 -4 -18 -33 -17 -23 0 -37 -5 -39
-15 -4 -13 -3 -13 7 0 10 13 11 13 7 0 -2 -8 -10 -14 -17 -12 -7 1 -18 -2 -24
-8 -7 -5 -16 -7 -20 -3 -4 4 -11 1 -16 -7 -5 -8 -18 -16 -30 -16 -11 -1 -23
-3 -27 -4 -5 -2 -15 -4 -23 -4 -9 -1 -14 -9 -12 -21 3 -16 2 -17 -12 -6 -16
13 -21 6 -17 -21 2 -12 -6 -9 -25 10 -17 16 -18 16 -11 -2 5 -14 4 -17 -8 -12
-9 3 -15 0 -15 -8 0 -9 -8 -12 -22 -9 -17 3 -19 2 -9 -5 10 -7 6 -11 -15 -15
-54 -10 -63 -13 -71 -22 -4 -4 -2 -5 5 -1 6 4 12 2 12 -3 0 -6 -9 -11 -19 -11
-28 0 -52 -11 -45 -21 3 -5 -3 -6 -12 -2 -12 4 -15 3 -10 -5 4 -7 2 -12 -3
-12 -6 0 -11 6 -11 13 0 8 -3 7 -9 -3 -6 -8 -7 -18 -4 -24 3 -5 1 -6 -6 -2 -6
4 -8 13 -4 19 4 7 0 6 -10 -2 -9 -7 -17 -10 -17 -5 -1 5 -9 -1 -20 -14 -11
-13 -24 -21 -30 -17 -9 5 -14 -7 -12 -26 1 -4 -7 -5 -17 -2 -10 3 -22 0 -25
-6 -4 -5 -14 -7 -23 -4 -12 5 -14 3 -8 -8 8 -12 6 -12 -8 0 -15 12 -17 12 -11
-3 7 -18 -15 -19 -28 -1 -5 6 -8 3 -8 -6 0 -26 -24 -41 -40 -26 -8 7 -11 8 -7
1 4 -7 -6 -20 -21 -29 l-27 -18 20 24 c14 17 15 20 3 10 -9 -7 -22 -10 -27 -6
-7 3 -8 0 -5 -9 7 -19 -12 -22 -20 -3 -3 6 -3 1 1 -13 5 -22 4 -23 -11 -11
-17 14 -25 11 -65 -27 -7 -7 -20 -11 -27 -8 -9 4 -14 -2 -14 -17 0 -18 -2 -19
-10 -7 -8 13 -11 13 -22 1 -11 -11 -11 -13 1 -6 10 6 12 4 6 -5 -6 -10 -11 -9
-23 6 -11 15 -13 15 -9 2 3 -9 0 -19 -9 -22 -23 -9 -26 -7 -19 7 4 6 -2 1 -13
-12 -11 -13 -24 -21 -31 -17 -6 4 -11 1 -11 -6 0 -8 -8 -14 -17 -15 -30 -2
-52 -9 -60 -18 -4 -4 -3 -5 4 -1 6 3 14 2 17 -3 4 -5 -1 -8 -11 -7 -9 2 -18
13 -20 25 -2 13 1 20 7 16 7 -4 7 2 0 19 -8 22 -7 26 8 27 10 0 12 3 5 6 -7 2
-13 9 -13 14 0 6 5 7 10 4 6 -3 10 -1 10 4 0 6 -6 11 -12 11 -7 0 -2 10 12 21
14 11 18 19 10 17 -9 -2 -15 1 -15 7 0 5 4 9 9 7 5 -2 6 4 3 13 -4 8 -1 15 5
15 6 0 5 6 -3 17 -12 15 -12 16 2 11 13 -5 16 -2 11 14 -3 14 -1 19 6 14 18
-11 14 0 -5 15 -14 12 -16 12 -8 0 6 -10 4 -12 -4 -6 -9 5 -10 10 -2 18 16 16
13 30 -5 23 -11 -4 -15 -2 -11 8 3 8 -1 17 -9 20 -24 9 -31 7 -14 -4 13 -8 13
-10 -2 -10 -9 0 -19 6 -21 13 -4 10 -6 10 -6 0 -1 -7 -6 -13 -12 -13 -5 0 -7
6 -3 13 6 9 4 9 -8 -1 -13 -10 -17 -10 -22 0 -5 10 -7 10 -12 1 -3 -7 -10 -13
-15 -13 -6 0 -7 5 -3 11 3 6 -5 4 -18 -5 -14 -9 -28 -13 -33 -9 -4 5 -5 3 -2
-4 9 -15 -2 -45 -14 -37 -5 3 -6 10 -3 16 4 7 2 8 -4 4 -6 -4 -9 -13 -5 -21 3
-8 0 -15 -7 -15 -6 0 -9 -4 -6 -8 9 -15 -61 -75 -76 -66 -9 5 -9 2 2 -11 9
-11 10 -16 3 -11 -8 4 -13 2 -13 -4 0 -6 -5 -8 -12 -4 -8 5 -9 2 -5 -9 3 -9 1
-19 -5 -23 -7 -5 -8 -2 -3 7 8 12 6 12 -8 0 -9 -7 -14 -18 -11 -23 3 -5 -2 -8
-11 -6 -10 2 -20 -4 -22 -12 -4 -12 -3 -12 5 -1 6 9 12 10 16 2 4 -6 -4 -13
-19 -17 -14 -3 -22 -11 -18 -17 4 -7 0 -8 -12 -3 -15 5 -16 4 -6 -8 9 -11 9
-16 0 -22 -8 -5 -10 -3 -5 7 4 8 1 6 -7 -3 -8 -10 -22 -18 -31 -18 -10 0 -15
-4 -11 -9 3 -5 1 -12 -4 -15 -5 -4 -8 2 -6 11 1 10 -1 25 -6 34 -5 10 -4 16 6
16 7 0 11 -7 8 -16 -3 -11 0 -10 7 3 10 15 9 20 -1 27 -12 7 -11 9 1 9 13 0
13 1 0 10 -13 8 -13 11 -1 22 10 10 12 10 7 1 -10 -18 -1 -16 14 3 8 8 9 14 4
12 -5 -2 -9 0 -9 3 0 3 -7 14 -15 25 -14 18 -14 18 5 2 20 -16 20 -16 21 18 0
19 -3 34 -7 34 -5 0 -6 7 -3 15 4 8 10 13 14 10 5 -3 6 4 3 15 -3 11 1 28 8
37 10 12 10 14 2 9 -7 -4 -13 -2 -13 3 0 6 7 11 15 11 8 0 15 5 15 11 0 5 -4
8 -9 5 -5 -3 -12 1 -15 10 -4 11 -2 15 8 11 23 -9 8 19 -17 32 -13 7 -15 10
-4 6 14 -4 13 2 -9 30 -22 29 -29 33 -41 23 -11 -9 -16 -9 -23 2 -7 11 -11 11
-24 1 -9 -7 -22 -11 -30 -8 -10 4 -13 1 -9 -9 3 -8 -1 -14 -10 -14 -9 0 -19
-5 -23 -12 -5 -7 -2 -9 7 -4 8 4 4 -1 -8 -11 -12 -10 -24 -28 -26 -40 -2 -12
-11 -31 -20 -41 -9 -10 -14 -22 -10 -27 5 -4 2 -5 -5 -1 -11 6 -8 13 9 32 12
13 18 24 13 24 -11 0 -54 -62 -54 -78 0 -7 -7 -9 -17 -5 -16 6 -16 4 -5 -9 11
-14 10 -18 -6 -27 -11 -6 -22 -8 -24 -5 -3 2 -4 -6 -3 -20 2 -18 -1 -23 -11
-19 -8 3 -14 2 -13 -3 4 -23 -2 -36 -16 -31 -11 5 -12 1 -5 -18 7 -19 6 -23
-5 -18 -8 3 -12 10 -8 16 3 6 1 7 -5 3 -6 -4 -8 -14 -5 -23 4 -11 3 -14 -5 -9
-11 7 -14 2 -16 -34 -1 -8 -12 -17 -26 -21 -14 -4 -19 -7 -12 -8 7 -1 10 -6 7
-11 -4 -6 -11 -8 -16 -4 -5 3 -9 2 -8 -3 4 -22 -2 -35 -15 -30 -10 4 -12 0 -9
-14 4 -12 0 -19 -10 -19 -8 0 -21 -8 -28 -17 -10 -11 -10 -14 -1 -9 6 4 12 2
12 -3 0 -6 -7 -11 -15 -11 -8 0 -15 -7 -15 -16 0 -8 -5 -12 -11 -8 -7 4 -6 -2
2 -17 11 -22 11 -23 -5 -10 -15 12 -16 12 -9 -5 6 -17 5 -18 -12 -4 -10 8 -16
10 -12 3 4 -7 1 -27 -8 -45 -11 -25 -13 -27 -9 -8 l5 25 -14 -23 c-7 -12 -17
-19 -21 -15 -5 4 -3 -3 4 -16 9 -17 9 -21 0 -16 -7 4 -14 -1 -17 -15 -3 -12
-11 -19 -19 -16 -8 3 -11 0 -8 -8 3 -8 0 -17 -7 -22 -8 -5 -10 -3 -4 6 5 9 4
11 -4 6 -9 -6 -9 -11 0 -22 7 -9 8 -14 3 -13 -21 4 -35 -2 -29 -11 4 -6 11 -7
17 -4 7 4 8 2 4 -5 -4 -6 -12 -9 -17 -6 -5 4 -9 1 -9 -4 0 -6 -6 -11 -14 -11
-7 0 -16 -13 -19 -30 -4 -18 -13 -30 -22 -30 -8 0 -15 -4 -15 -10 0 -17 -33
-49 -44 -43 -6 4 -5 -1 3 -10 11 -14 11 -17 0 -18 -8 -1 -18 -1 -23 0 -5 1 -3
-5 4 -14 7 -9 9 -15 4 -14 -21 4 -28 -2 -14 -12 12 -9 11 -10 -8 -6 -12 3 -20
1 -17 -3 3 -5 -3 -14 -12 -20 -15 -9 -14 -10 7 -5 25 5 25 5 3 -6 -13 -7 -23
-17 -23 -23 0 -6 -15 -23 -32 -39 -18 -16 -28 -26 -21 -23 6 3 15 1 19 -5 4
-8 3 -9 -4 -5 -7 4 -12 2 -12 -3 0 -6 -6 -10 -12 -8 -7 1 -12 -4 -11 -10 2 -7
-4 -13 -12 -13 -8 0 -15 -5 -15 -11 0 -5 5 -7 12 -3 7 5 8 3 4 -5 -5 -7 -15
-10 -23 -6 -13 4 -14 3 -4 -9 9 -11 9 -16 0 -22 -8 -5 -10 -3 -4 7 5 8 -1 6
-13 -5 -12 -10 -19 -22 -16 -27 7 -13 -15 -51 -27 -44 -5 4 -9 -1 -9 -9 0 -9
-7 -16 -15 -16 -8 0 -15 -5 -15 -11 0 -5 5 -7 12 -3 7 4 8 3 4 -4 -4 -7 -13
-12 -21 -12 -8 0 -17 -5 -21 -12 -5 -7 -3 -8 7 -3 8 5 -4 -9 -27 -31 -25 -24
-40 -47 -38 -61 1 -15 -3 -20 -14 -15 -11 4 -14 0 -10 -16 4 -16 2 -19 -10
-15 -10 4 -13 2 -8 -5 4 -7 2 -12 -4 -12 -6 0 -9 -4 -6 -9 3 -5 -2 -15 -12
-22 -15 -13 -16 -12 -4 3 9 11 10 18 2 23 -6 4 -9 3 -8 -2 1 -4 -3 -18 -10
-30 -11 -20 -10 -22 5 -16 15 5 15 3 -2 -10 -11 -8 -23 -13 -28 -10 -4 2 -10
-10 -14 -27 -4 -22 -8 -28 -14 -18 -6 9 -9 6 -9 -10 0 -13 -4 -21 -9 -17 -5 3
-11 -5 -13 -17 -2 -13 -8 -23 -15 -23 -6 0 -15 -3 -19 -7 -4 -5 -1 -8 7 -8 8
0 3 -6 -11 -13 -14 -7 -24 -20 -22 -29 1 -9 -7 -23 -19 -31 -14 -10 -18 -20
-13 -29 6 -11 5 -11 -8 0 -13 10 -18 10 -24 1 -4 -7 -3 -9 4 -5 6 4 10 -1 9
-13 -1 -16 -4 -18 -15 -9 -7 6 -12 7 -11 2 3 -20 -1 -35 -10 -30 -5 3 -11 -1
-14 -9 -4 -10 -1 -12 11 -8 13 4 12 2 -3 -10 -11 -8 -24 -13 -30 -9 -5 3 -4
-2 4 -11 12 -15 12 -17 -3 -11 -15 6 -22 -11 -17 -40 1 -5 -6 -3 -16 4 -10 8
-15 10 -11 6 4 -5 0 -15 -10 -23 -16 -12 -16 -13 3 -7 19 5 19 5 3 -9 -10 -8
-15 -17 -11 -20 3 -4 -1 -7 -11 -7 -11 0 -14 -4 -10 -12 5 -7 2 -9 -9 -5 -12
4 -14 2 -10 -10 5 -12 3 -14 -8 -8 -12 8 -12 6 0 -8 12 -15 12 -17 -2 -12 -8
4 -18 1 -23 -6 -4 -8 -3 -10 4 -5 7 4 12 2 12 -3 0 -6 -6 -11 -14 -11 -7 0
-19 -7 -26 -15 -11 -13 -10 -15 6 -9 18 5 18 5 1 -6 -10 -6 -14 -16 -10 -23 4
-8 1 -7 -9 1 -13 10 -18 10 -24 1 -5 -8 -3 -9 6 -4 8 5 11 3 8 -6 -3 -8 -11
-13 -17 -12 -6 2 -10 0 -10 -5 1 -4 1 -16 0 -27 -1 -17 -3 -18 -11 -5 -9 13
-10 13 -11 0 -1 -8 -1 -19 0 -24 1 -5 -6 -6 -15 -2 -15 6 -15 4 -3 -11 12 -15
12 -16 -4 -10 -10 4 -16 3 -12 -3 3 -5 -4 -14 -15 -20 -11 -6 -18 -15 -15 -20
3 -6 -7 -22 -22 -37 -15 -14 -22 -23 -16 -19 9 5 11 2 7 -9 -4 -9 -13 -14 -21
-11 -8 3 -11 1 -8 -4 3 -6 1 -10 -6 -10 -7 0 -9 -10 -7 -25 3 -14 1 -25 -3
-25 -5 0 -9 6 -9 13 0 8 -3 7 -9 -3 -6 -8 -7 -19 -3 -25 3 -5 -1 -4 -10 3 -13
10 -15 9 -13 -13 2 -13 -1 -23 -7 -22 -6 1 -13 -4 -16 -12 -3 -9 0 -11 8 -6 9
5 11 4 6 -4 -6 -9 -12 -9 -24 1 -10 7 -14 8 -9 3 4 -4 -1 -18 -10 -29 -17 -20
-17 -20 1 -6 18 14 18 14 6 -7 -8 -12 -20 -19 -29 -15 -10 4 -13 1 -8 -11 4
-12 1 -17 -11 -17 -15 0 -15 -2 -2 -10 12 -8 10 -10 -9 -10 -23 0 -24 -1 -6
-13 17 -13 16 -14 -6 -13 -18 1 -23 -4 -21 -17 2 -9 -1 -17 -5 -16 -20 3 -27
-2 -13 -11 11 -7 11 -10 2 -10 -8 0 -10 -5 -6 -12 5 -8 0 -7 -11 2 -10 8 -16
10 -12 3 10 -15 -13 -63 -29 -63 -8 0 -11 -6 -7 -17 5 -11 3 -14 -6 -8 -10 5
-11 2 -7 -12 4 -12 -1 -27 -14 -41 -12 -12 -17 -22 -12 -22 5 0 9 -6 9 -14 0
-9 -6 -12 -16 -8 -14 5 -14 4 -2 -12 12 -15 12 -17 0 -14 -8 2 -14 -4 -14 -12
0 -8 -7 -21 -15 -28 -13 -12 -13 -13 0 -7 11 5 11 3 -2 -7 -12 -10 -14 -18 -6
-31 7 -13 6 -17 -4 -15 -8 2 -13 -6 -12 -18 0 -16 -4 -20 -15 -16 -10 4 -13 1
-8 -12 4 -10 1 -19 -8 -22 -8 -4 -15 -10 -15 -16 0 -5 5 -6 11 -3 6 4 5 -2 -2
-13 -7 -12 -18 -18 -24 -15 -5 3 -5 0 2 -7 13 -14 -1 -55 -16 -46 -4 3 -8 -1
-9 -9 -1 -8 -3 -22 -4 -30 -1 -8 -8 -17 -16 -20 -12 -4 -12 -8 -1 -22 8 -10 9
-14 2 -10 -6 4 -14 3 -18 -3 -3 -5 -1 -10 5 -10 6 0 8 -5 5 -10 -4 -6 -11 -8
-16 -5 -5 3 -6 -2 -2 -11 5 -13 3 -15 -8 -9 -12 7 -12 6 -1 -7 11 -14 10 -18
-7 -28 -12 -6 -21 -16 -21 -23 0 -7 4 -6 10 3 5 8 10 11 10 5 0 -13 -20 -43
-20 -30 -1 23 -20 -22 -20 -48 0 -15 -7 -30 -15 -33 -8 -4 -15 -10 -15 -16 0
-5 6 -6 13 -3 6 4 4 0 -7 -9 -10 -8 -15 -19 -11 -25 3 -7 0 -8 -9 -5 -11 4
-14 0 -11 -15 2 -11 -1 -24 -7 -27 -7 -4 -8 -2 -4 4 4 7 2 12 -4 12 -6 0 -8 5
-4 13 6 9 4 9 -8 -1 -14 -11 -16 -9 -14 12 1 18 4 22 14 14 9 -8 11 -7 6 6 -3
9 -10 16 -15 16 -5 0 -9 18 -9 41 0 29 -3 38 -12 33 -10 -6 -10 -4 0 7 6 7 12
17 12 22 0 4 -6 5 -12 1 -8 -5 -7 0 2 11 9 11 10 16 3 11 -7 -4 -13 -2 -13 3
0 6 6 11 13 11 9 0 8 3 -2 9 -9 6 -12 22 -9 49 2 22 0 38 -4 36 -3 -2 -9 0
-13 6 -3 5 0 10 7 10 9 0 9 3 -2 10 -13 8 -13 10 -1 10 11 0 10 4 -5 16 -19
15 -19 16 0 9 20 -6 20 -6 0 16 -10 12 -13 19 -6 15 6 -4 12 -3 12 2 0 6 -7
12 -15 16 -16 6 -16 26 0 38 6 5 5 8 -4 8 -11 0 -11 3 -1 15 10 12 10 15 0 15
-10 0 -10 3 0 15 10 12 9 16 -4 21 -9 3 -16 10 -16 16 0 5 4 6 10 3 6 -3 7 1
4 9 -3 9 -11 13 -18 9 -6 -4 -5 1 3 10 10 13 10 17 1 17 -10 0 -10 3 0 15 7 9
8 15 2 15 -5 0 -8 10 -4 22 4 15 2 19 -8 13 -10 -6 -10 -4 -2 11 7 13 6 26 -5
47 -8 16 -10 26 -4 23 6 -4 11 -3 11 3 0 5 -5 11 -11 13 -7 2 -12 21 -13 41
-1 29 2 36 14 32 8 -3 5 4 -8 14 -15 13 -18 21 -10 24 10 4 9 6 -1 6 -10 1
-11 4 -2 15 8 10 8 16 -3 25 -10 8 -12 21 -6 47 6 27 5 37 -7 41 -12 5 -12 7
-1 14 11 7 11 9 -1 9 -11 0 -11 3 -1 15 9 10 9 15 1 15 -6 0 -11 7 -11 16 0 9
-5 13 -12 9 -7 -4 -2 3 12 15 14 12 20 19 13 16 -6 -4 -14 -2 -18 4 -3 5 0 10
7 10 8 1 6 6 -6 15 -17 13 -17 15 -3 15 10 0 14 5 11 15 -4 8 -9 13 -13 11 -4
-3 -7 6 -7 19 0 13 4 21 8 19 4 -3 8 0 8 5 0 6 -5 11 -11 11 -8 0 -7 6 2 17
11 13 11 17 1 21 -10 3 -10 7 0 20 10 12 10 16 0 19 -6 3 -10 9 -6 14 3 5 -3
9 -13 9 -15 0 -16 2 -3 10 12 8 9 10 -13 10 -16 0 -26 4 -23 8 3 5 -1 9 -9 9
-8 0 -12 -4 -9 -9 3 -4 0 -8 -5 -8 -6 0 -11 5 -11 11 0 6 -7 9 -15 6 -8 -4
-17 -1 -21 5 -5 7 -2 8 6 3 9 -5 11 -4 6 3 -5 9 -13 9 -27 1 -12 -6 -23 -8
-27 -5 -3 3 1 6 9 7 8 0 6 4 -6 9 -11 4 -30 6 -42 3 -13 -3 -23 -1 -23 5 0 5
-7 13 -16 16 -8 3 -13 2 -10 -2 2 -4 -4 -8 -14 -8 -12 0 -16 4 -10 11 6 7 -1
12 -23 13 -17 2 -34 8 -38 13 -4 8 -8 7 -12 -2 -4 -10 -6 -10 -6 -1 -1 6 -6
12 -12 12 -5 0 -7 -6 -3 -12 4 -7 -4 -3 -17 9 -19 17 -28 20 -43 11 -17 -9
-18 -8 -12 8 6 15 5 16 -5 7 -8 -8 -18 -9 -31 -2 -10 5 -23 7 -28 4 -5 -3 -12
0 -16 6 -5 8 -3 9 6 4 8 -5 11 -4 7 3 -4 5 -16 8 -27 5 -12 -3 -20 0 -20 6 0
7 -5 9 -10 6 -6 -4 -7 -12 -3 -18 4 -7 0 -6 -10 2 -9 7 -14 18 -11 23 5 7 0 7
-12 0 -14 -8 -21 -6 -32 6 -9 12 -11 12 -6 2 5 -10 -1 -8 -16 5 -13 11 -20 15
-17 8 4 -6 3 -14 -3 -18 -5 -3 -10 0 -10 8 0 10 -7 13 -20 10 -14 -4 -20 0
-20 11 0 9 -5 16 -11 16 -6 0 -8 -7 -5 -16 4 -11 -3 -9 -26 7 -17 13 -28 18
-24 11 4 -7 2 -12 -3 -12 -6 0 -11 8 -12 18 0 10 -3 12 -6 5 -3 -10 -12 -9
-35 3 -17 9 -28 12 -25 7 10 -17 -32 -12 -44 5 -11 14 -11 15 1 5 17 -16 30
-17 30 -2 0 5 -4 8 -9 4 -5 -3 -13 -1 -16 5 -5 8 -12 7 -23 -2 -13 -11 -14
-11 -7 1 6 11 4 13 -7 9 -8 -4 -21 -2 -29 3 -12 7 -12 9 0 9 8 0 11 3 8 6 -4
4 -13 1 -22 -6 -12 -10 -15 -10 -15 0 0 9 -4 9 -17 -1 -14 -12 -16 -12 -11 2
5 12 0 14 -23 11 -18 -3 -29 0 -29 8 0 8 -10 9 -30 5 -22 -5 -30 -3 -30 7 0
10 -3 9 -10 -2 -8 -12 -10 -12 -10 -1 0 10 -6 10 -26 -4 -15 -9 -23 -12 -20
-6 8 12 -6 15 -18 4 -10 -10 -37 -13 -31 -3 6 10 -15 8 -32 -3 -6 -4 -14 -1
-16 5 -4 10 -8 9 -16 -2 -10 -13 -12 -13 -20 -1 -8 12 -12 12 -24 2 -12 -9
-16 -9 -20 1 -4 10 -8 10 -16 -2 -10 -13 -12 -13 -20 -1 -8 12 -12 12 -24 2
-12 -9 -16 -9 -20 1 -4 10 -8 10 -16 -2 -10 -13 -12 -13 -20 -1 -8 12 -12 12
-24 2 -12 -9 -16 -9 -20 1 -4 10 -8 10 -17 -2 -9 -11 -13 -12 -17 -2 -2 6 -9
12 -14 12 -6 0 -7 -6 -3 -12 5 -9 2 -9 -9 1 -14 11 -17 11 -17 0 0 -12 -2 -12
-9 0 -7 11 -9 11 -14 0 -5 -12 -7 -12 -15 0 -7 9 -12 10 -16 2 -4 -6 -13 -11
-19 -11 -7 0 -6 4 3 10 9 6 10 10 3 10 -6 0 -15 -5 -19 -11 -4 -8 -9 -7 -16 2
-8 11 -11 12 -15 1 -4 -10 -9 -9 -19 5 -12 16 -13 16 -8 1 4 -13 1 -16 -15
-13 -12 2 -21 -1 -21 -8 0 -7 -4 -6 -10 3 -8 12 -10 12 -11 -5 0 -11 -3 -14
-6 -7 -8 20 -41 34 -49 20 -4 -6 -3 -8 4 -4 6 3 13 2 17 -3 3 -6 -4 -8 -17 -5
-32 7 -85 7 -96 0 -5 -3 -8 -17 -7 -31 2 -14 -1 -23 -6 -19 -5 3 -6 10 -3 16
4 6 2 8 -4 4 -6 -3 -9 -15 -7 -26 2 -11 0 -20 -6 -20 -5 0 -8 -6 -7 -12 2 -7
-3 -12 -10 -10 -10 2 -11 -4 -7 -19 6 -16 4 -20 -6 -13 -10 6 -10 3 1 -11 8
-10 10 -16 4 -12 -7 4 -14 -3 -18 -18 -4 -14 -11 -25 -17 -25 -8 0 -7 -5 1
-15 11 -13 10 -14 -3 -9 -12 4 -15 0 -13 -20 2 -14 -1 -23 -5 -20 -5 3 -12 -2
-15 -10 -3 -9 -10 -13 -15 -10 -5 3 -6 10 -3 16 4 7 2 8 -5 4 -6 -4 -9 -12 -6
-17 6 -8 -17 -14 -39 -10 -5 1 -3 -6 5 -15 13 -16 12 -16 -11 -4 -23 12 -24
12 -11 -4 13 -15 12 -16 -13 -6 -15 5 -25 6 -22 1 3 -5 -2 -15 -11 -22 -14
-12 -16 -12 -9 0 6 9 5 12 -5 9 -8 -3 -13 -11 -11 -18 3 -11 0 -11 -12 0 -13
10 -16 10 -16 -3 0 -9 -5 -19 -12 -23 -8 -5 -9 -2 -5 11 7 17 6 17 -18 1 -14
-9 -31 -14 -38 -9 -7 4 -7 0 2 -10 12 -15 12 -17 -3 -11 -9 4 -16 1 -16 -6 0
-10 -3 -10 -14 -1 -11 9 -16 9 -22 0 -5 -8 -3 -10 7 -5 8 4 3 -1 -11 -12 -18
-15 -28 -18 -37 -10 -9 7 -13 7 -13 -1 0 -6 -9 -11 -21 -11 -11 0 -18 -4 -15
-9 3 -5 -1 -12 -10 -15 -8 -3 -12 -2 -9 4 3 6 1 10 -4 10 -6 0 -11 -5 -11 -11
0 -5 -5 -7 -10 -4 -6 3 -10 0 -10 -8 0 -9 -9 -13 -26 -11 -19 2 -24 -1 -20
-12 3 -8 2 -12 -3 -9 -5 3 -12 1 -16 -5 -3 -5 -12 -10 -18 -10 -7 0 -6 4 3 10
10 7 11 10 2 10 -7 0 -15 -7 -18 -15 -4 -8 -10 -15 -16 -15 -5 0 -6 6 -3 13 4
6 -6 -1 -20 -18 -15 -16 -24 -25 -21 -18 4 7 -1 11 -13 10 -11 0 -17 -5 -15
-9 3 -4 -4 -8 -15 -8 -12 0 -21 -6 -21 -12 0 -9 -4 -8 -10 2 -8 13 -10 13 -10
-1 0 -10 -7 -16 -17 -15 -11 0 -17 -5 -15 -13 3 -12 0 -12 -12 -2 -11 9 -16 9
-22 0 -5 -8 -3 -9 6 -4 9 5 11 4 6 -4 -6 -9 -11 -9 -24 1 -13 11 -14 11 -7 -1
6 -11 4 -13 -9 -8 -9 4 -15 3 -12 -2 8 -12 -22 -24 -56 -24 -15 0 -29 -6 -32
-14 -4 -9 -1 -11 6 -7 7 5 8 3 4 -5 -5 -7 -11 -10 -14 -7 -3 3 -12 0 -20 -7
-11 -8 -14 -8 -9 0 4 7 1 10 -10 9 -9 -2 -19 -8 -21 -15 -3 -9 -7 -9 -18 0
-12 9 -13 9 -9 -3 3 -8 -2 -21 -12 -29 -16 -13 -17 -12 -4 4 12 15 12 17 -1
12 -8 -3 -21 -17 -28 -31 -7 -13 -15 -22 -18 -19 -3 2 1 13 9 22 13 16 12 17
-2 5 -21 -16 -31 -50 -17 -58 6 -4 5 -10 -3 -15 -11 -8 -10 -12 5 -24 11 -8
14 -15 7 -15 -7 0 -9 -5 -6 -10 4 -6 10 -8 14 -6 4 3 8 -1 8 -8 0 -9 -7 -12
-16 -9 -11 4 -10 1 3 -9 10 -8 16 -20 12 -26 -4 -7 -3 -12 2 -12 6 0 8 -9 5
-20 -3 -11 -1 -20 5 -20 5 0 13 -7 16 -16 4 -10 2 -13 -7 -9 -6 4 -3 -1 8 -10
21 -16 21 -21 3 -43 -8 -10 -6 -11 8 -5 17 6 17 5 5 -10 -11 -14 -11 -18 3
-23 9 -3 16 -15 16 -26 0 -12 8 -27 18 -34 16 -13 16 -14 -3 -8 -19 5 -19 5
-2 -6 10 -6 25 -9 34 -6 14 6 14 4 2 -10 -13 -16 -12 -16 9 -5 18 10 22 9 22
-4 0 -8 5 -15 11 -15 5 0 7 4 4 10 -3 6 1 7 9 4 9 -3 14 -9 12 -13 -3 -4 4 -7
15 -7 10 0 19 5 19 10 0 5 9 -1 20 -14 13 -15 20 -18 20 -9 0 11 2 12 9 1 4
-8 11 -13 15 -13 26 4 36 0 30 -11 -5 -8 0 -7 11 2 10 8 16 10 12 4 -4 -7 0
-15 9 -18 10 -4 13 -2 8 7 -6 9 -4 9 8 -1 8 -7 24 -9 33 -5 13 4 16 3 11 -5
-4 -7 -1 -12 9 -12 10 0 13 -5 9 -12 -5 -9 -2 -9 9 1 12 9 17 10 17 2 0 -7 4
-9 10 -6 5 3 10 1 10 -4 0 -6 5 -11 11 -11 5 0 7 4 4 10 -3 6 1 7 9 4 9 -3 13
-10 10 -15 -3 -5 9 -7 25 -5 18 2 36 -2 42 -10 6 -8 22 -14 36 -14 17 0 22 -4
17 -12 -5 -8 0 -7 11 2 15 12 17 12 10 1 -6 -11 -4 -13 8 -8 10 3 17 2 17 -3
0 -5 8 -6 17 -3 12 5 15 2 10 -10 -3 -9 -2 -17 3 -17 6 0 10 7 10 16 0 13 5
11 21 -7 12 -14 19 -18 16 -8 -3 9 1 16 9 16 7 0 11 -4 8 -8 -2 -4 5 -13 17
-19 15 -8 19 -8 15 -1 -5 7 -1 9 8 5 9 -3 16 -10 16 -15 0 -5 5 -9 11 -9 5 0
7 5 4 10 -9 15 4 12 20 -4 8 -7 11 -17 7 -22 -4 -5 1 -2 11 5 15 12 21 9 19
-10 -1 -4 8 -5 19 -2 12 4 25 0 30 -8 7 -12 9 -12 9 1 1 12 3 11 11 -2 5 -10
15 -18 20 -18 6 0 7 6 3 13 -6 9 -5 9 8 0 8 -7 18 -10 21 -6 4 3 9 -1 13 -10
5 -14 10 -15 27 -5 19 10 20 9 10 -4 -10 -12 -10 -15 0 -15 6 0 21 -4 31 -9
14 -5 17 -4 12 4 -5 8 -2 10 8 6 9 -3 16 -11 16 -16 0 -6 8 -4 17 3 9 8 14 9
11 4 -4 -6 2 -16 12 -23 13 -8 21 -8 25 -1 4 6 12 4 20 -7 12 -18 50 -30 40
-13 -9 14 29 -3 43 -20 12 -14 13 -14 8 1 -3 12 -1 15 10 11 7 -3 14 -10 14
-15 0 -6 13 -8 30 -6 22 3 27 1 20 -7 -17 -20 2 -26 24 -8 12 10 18 14 14 9
-4 -4 -1 -14 5 -21 9 -10 15 -10 26 -1 11 8 13 8 8 -1 -4 -6 -3 -14 3 -18 5
-3 10 2 11 12 0 17 1 17 8 0 4 -10 9 -17 11 -16 3 1 16 -4 30 -11 24 -13 24
-12 10 5 -14 17 -14 17 7 5 12 -8 19 -19 16 -25 -4 -5 -3 -7 2 -3 4 4 15 2 23
-5 13 -10 15 -9 9 7 -6 16 -5 17 8 6 21 -17 21 -74 0 -66 -13 5 -14 2 -4 -16
9 -17 9 -24 -3 -32 -19 -14 -33 -50 -15 -40 8 5 8 2 -2 -9 -7 -9 -16 -15 -20
-12 -4 2 -7 -6 -6 -18 1 -12 -3 -25 -9 -29 -7 -5 -7 -8 3 -8 8 0 4 -8 -10 -20
-13 -10 -18 -19 -11 -20 6 0 12 -5 12 -11 0 -5 -4 -7 -10 -4 -9 5 -15 -24 -11
-49 1 -5 -6 -6 -15 -2 -14 5 -15 4 -4 -9 9 -11 9 -15 1 -15 -7 0 -10 -4 -7 -9
8 -13 -12 -63 -22 -57 -5 3 -9 -1 -9 -9 0 -8 4 -12 9 -9 4 3 5 -2 2 -10 -3 -9
-11 -13 -16 -10 -6 4 -9 1 -6 -7 3 -8 -2 -20 -11 -27 -14 -10 -14 -11 4 -6 17
5 16 3 -5 -16 -14 -12 -19 -19 -12 -15 18 9 15 -6 -5 -22 -10 -8 -13 -12 -7
-9 6 3 11 -1 11 -8 0 -9 -7 -12 -16 -8 -14 5 -14 4 -1 -13 14 -17 13 -18 -5
-11 -15 5 -17 4 -8 -5 9 -9 8 -15 -3 -27 -8 -8 -13 -21 -10 -29 3 -7 -1 -16
-9 -19 -8 -4 -15 -10 -15 -16 0 -5 5 -6 12 -2 7 4 1 -8 -12 -26 -13 -18 -19
-30 -12 -26 7 4 12 3 12 -2 0 -6 -7 -13 -16 -16 -8 -3 -12 -10 -9 -16 3 -5 0
-10 -7 -10 -9 0 -9 -3 2 -10 13 -8 8 -14 -11 -12 -3 1 -5 -9 -5 -21 1 -14 -4
-21 -13 -19 -12 3 -12 0 -1 -12 10 -13 10 -16 -4 -16 -10 0 -15 -4 -11 -9 3
-5 1 -12 -5 -16 -7 -4 -6 -13 1 -27 6 -11 7 -18 1 -14 -5 3 -15 -1 -21 -8 -8
-10 -9 -16 -1 -21 15 -10 12 -25 -5 -19 -10 4 -13 0 -10 -15 2 -12 0 -21 -5
-21 -5 0 -7 -9 -5 -21 3 -15 0 -19 -11 -15 -8 3 -12 2 -9 -3 3 -5 1 -12 -4
-16 -6 -3 -8 -12 -5 -19 3 -9 -3 -17 -15 -21 -12 -3 -21 -11 -21 -17 0 -6 7
-5 18 3 15 12 16 12 5 -2 -7 -9 -10 -19 -6 -23 4 -4 -1 -4 -12 0 -18 7 -19 6
-5 -11 9 -11 10 -16 3 -11 -7 4 -13 4 -13 1 0 -8 26 -35 31 -32 3 1 -2 -4 -10
-10 -11 -9 -11 -13 -2 -13 7 0 9 -5 5 -12 -6 -10 -5 -10 7 -1 13 11 15 8 11
-17 -3 -20 0 -30 8 -30 10 0 10 -3 1 -14 -9 -11 -9 -16 0 -22 8 -5 9 -3 4 6
-6 9 -4 11 4 6 7 -5 10 -14 7 -22 -3 -8 0 -14 5 -14 7 0 9 -11 7 -25 -3 -14
-1 -28 4 -31 4 -3 5 -11 1 -17 -4 -7 2 -5 12 3 17 14 18 14 6 -7 -8 -16 -8
-23 -1 -23 6 0 8 -4 5 -10 -3 -5 -1 -10 4 -10 6 0 11 -11 11 -25 0 -14 6 -25
13 -25 8 0 7 -4 -3 -10 -10 -6 -11 -10 -2 -10 6 0 12 -11 12 -25 0 -17 6 -25
18 -26 10 0 12 -3 5 -6 -9 -3 -10 -10 -3 -22 5 -10 6 -21 3 -25 -3 -3 -1 -6 6
-6 7 0 10 -4 7 -9 -3 -5 4 -21 16 -37 13 -15 18 -25 11 -21 -6 4 -14 0 -17 -9
-3 -8 -2 -12 3 -9 16 9 26 -14 34 -75 2 -14 9 -35 15 -46 6 -12 8 -24 5 -28
-3 -3 1 -6 10 -6 10 0 17 -5 17 -11 0 -5 -4 -8 -9 -4 -5 3 -13 0 -17 -6 -4 -8
-3 -9 4 -5 7 4 12 2 12 -4 0 -6 5 -8 11 -4 8 5 8 1 0 -13 -8 -16 -6 -25 10
-42 11 -11 15 -21 9 -21 -5 0 -10 -5 -10 -11 0 -6 6 -9 13 -6 7 2 13 -4 14
-17 7 -58 10 -76 16 -83 4 -3 7 -14 7 -24 0 -10 9 -23 21 -29 16 -9 18 -14 8
-26 -9 -11 -9 -14 0 -14 7 0 9 -5 6 -11 -9 -13 14 -69 27 -69 6 0 4 -8 -3 -17
-12 -14 -12 -16 0 -8 11 6 13 4 8 -8 -4 -10 0 -20 11 -26 14 -8 14 -11 2 -11
-9 0 -5 -6 10 -15 22 -13 23 -14 5 -15 -12 0 -16 -3 -9 -8 6 -4 10 -17 9 -29
-1 -12 3 -21 9 -20 6 1 10 -4 8 -10 -1 -7 3 -13 9 -13 6 0 9 -9 6 -20 -3 -11
0 -23 5 -27 7 -4 8 -1 3 7 -6 9 -4 11 4 5 9 -5 10 -10 2 -18 -14 -14 -14 -30
-1 -22 6 4 10 -5 10 -19 0 -14 6 -26 13 -26 8 0 7 -4 -3 -10 -13 -8 -12 -10 3
-10 15 0 16 -3 7 -20 -6 -11 -7 -20 -3 -19 29 5 36 -2 17 -17 -10 -8 -13 -12
-5 -8 11 5 13 3 8 -9 -4 -10 -2 -16 5 -14 6 1 13 -4 16 -12 3 -9 0 -11 -9 -6
-8 5 -5 -2 5 -14 21 -23 31 -55 15 -45 -5 3 -6 10 -3 16 4 7 2 8 -4 4 -13 -8
15 -55 33 -56 6 0 3 -5 -5 -10 -12 -8 -12 -10 5 -11 l20 0 -20 -9 c-15 -7 -16
-9 -4 -9 11 -1 15 -9 14 -26 -2 -14 2 -28 7 -32 7 -4 8 -1 3 7 -5 8 -4 11 3 7
5 -4 8 -17 4 -29 -4 -16 -2 -19 9 -13 11 7 11 5 -1 -10 -8 -10 -10 -16 -4 -12
7 4 15 0 18 -9 9 -24 7 -31 -4 -14 -7 10 -10 11 -10 2 0 -7 7 -15 15 -18 13
-5 13 -9 3 -22 -10 -12 -10 -14 -1 -8 8 4 13 1 13 -9 0 -10 5 -14 13 -9 9 5 9
4 0 -6 -9 -10 -7 -17 8 -33 14 -15 16 -24 8 -34 -9 -9 -8 -13 0 -13 7 0 10 -4
7 -9 -3 -5 1 -14 9 -21 16 -14 21 -45 5 -35 -6 3 -7 -1 -4 -9 3 -9 11 -13 16
-10 6 4 7 -2 3 -16 -5 -17 -4 -20 5 -15 10 6 12 1 8 -19 -4 -19 -1 -26 11 -27
10 0 11 -2 4 -6 -10 -3 -9 -9 3 -21 15 -14 15 -17 -2 -29 -13 -10 -14 -13 -3
-13 9 0 10 -3 3 -8 -17 -11 -40 -57 -24 -47 8 5 11 3 8 -6 -3 -8 -11 -13 -18
-11 -11 3 -11 0 0 -12 10 -13 10 -16 0 -16 -9 0 -10 -3 -1 -14 8 -10 8 -16 -2
-25 -8 -6 -17 -8 -21 -4 -4 4 -4 0 0 -10 3 -9 11 -14 18 -11 6 3 2 -2 -8 -10
-11 -9 -16 -16 -10 -17 5 0 0 -4 -11 -9 -17 -7 -17 -9 -2 -9 20 -1 23 -21 3
-21 -8 0 -18 -5 -22 -12 -4 -7 -3 -8 4 -4 16 10 15 -7 0 -22 -10 -10 -10 -15
2 -22 13 -8 13 -10 -1 -10 -12 0 -15 -7 -12 -27 3 -20 2 -24 -5 -15 -7 11 -10
9 -15 -7 -3 -12 -1 -19 4 -15 10 6 12 -7 3 -30 -3 -9 -11 -13 -18 -9 -6 4 -5
0 2 -9 11 -14 11 -18 -1 -25 -20 -12 -27 -39 -14 -52 9 -10 8 -15 -5 -25 -14
-10 -15 -15 -5 -25 9 -10 8 -11 -8 -5 -18 7 -18 6 -6 -9 11 -14 11 -18 -3 -23
-9 -3 -16 -10 -16 -16 0 -5 5 -6 11 -2 8 5 8 1 0 -13 -6 -11 -7 -24 -3 -29 4
-5 0 -3 -8 3 -13 10 -16 8 -16 -7 0 -10 4 -16 8 -14 4 3 8 0 8 -5 0 -6 -5 -11
-11 -11 -6 0 -8 -8 -4 -19 3 -12 0 -23 -8 -28 -20 -12 -30 -45 -16 -54 8 -5 5
-11 -10 -18 -18 -10 -19 -15 -10 -33 10 -18 9 -20 -6 -14 -15 5 -16 4 -5 -9
11 -14 7 -19 -12 -16 -4 0 -5 -8 -3 -19 3 -17 1 -18 -15 -10 -13 7 -19 6 -24
-5 -3 -8 -13 -15 -21 -15 -9 0 -13 -5 -10 -10 3 -5 1 -10 -4 -10 -6 0 -11 5
-11 11 0 5 -5 7 -10 4 -6 -4 -8 -11 -5 -16 3 -5 -1 -6 -9 -3 -9 3 -16 1 -16
-5 0 -6 -5 -11 -11 -11 -5 0 -7 6 -3 13 6 9 5 9 -8 0 -8 -7 -19 -9 -24 -5 -4
4 -3 -1 4 -10 12 -14 10 -16 -12 -14 -14 2 -27 -3 -30 -10 -3 -8 -11 -14 -19
-14 -21 0 -67 -24 -67 -35 0 -5 -5 -3 -10 5 -8 13 -10 12 -10 -2 0 -10 -6 -18
-14 -18 -8 0 -18 -9 -21 -20 -3 -11 -11 -20 -17 -20 -6 0 -5 7 3 18 13 15 12
16 -3 3 -10 -7 -18 -19 -18 -27 0 -7 -5 -16 -12 -20 -7 -5 -9 -2 -4 7 4 8 1 6
-7 -3 -8 -10 -18 -14 -23 -10 -4 4 -2 -2 6 -12 10 -13 10 -17 2 -12 -7 4 -19
0 -28 -8 -9 -9 -19 -14 -24 -11 -5 3 -12 0 -16 -6 -5 -8 -3 -9 6 -4 8 5 11 3
8 -6 -3 -8 -11 -13 -17 -11 -6 1 -11 -3 -11 -9 0 -5 -5 -7 -12 -3 -7 5 -9 2
-5 -9 4 -12 2 -14 -11 -10 -9 3 -14 2 -10 -2 5 -5 -2 -13 -15 -20 -12 -6 -21
-18 -19 -25 2 -11 0 -11 -11 -1 -12 9 -15 8 -13 -6 0 -11 -6 -18 -18 -18 -10
0 -22 -10 -27 -23 -5 -12 -16 -22 -24 -22 -9 0 -13 -4 -10 -10 5 -9 -5 -14
-25 -12 -3 0 -17 -9 -30 -20 l-25 -20 30 17 30 18 -19 -21 c-11 -12 -27 -22
-37 -22 -10 0 -21 -9 -24 -20 -4 -11 -11 -17 -17 -14 -7 5 -9 1 -5 -9 4 -12 1
-17 -11 -17 -13 0 -14 -2 -3 -9 11 -7 11 -9 0 -14 -10 -4 -10 -6 -1 -6 15 -1
16 -31 0 -31 -6 0 -8 -3 -5 -6 4 -4 14 -1 24 7 9 8 14 9 10 3 -4 -7 -1 -17 7
-23 11 -9 15 -9 19 1 4 10 8 10 16 -2 10 -13 11 -13 11 0 0 13 1 13 10 0 9
-13 11 -13 20 0 5 8 10 11 10 6 0 -5 9 -1 19 8 14 13 21 14 26 6 6 -9 10 -9
16 1 6 10 9 11 9 2 0 -7 5 -13 11 -13 5 0 7 4 4 10 -3 6 1 7 9 4 11 -4 16 0
16 11 0 9 5 13 10 10 6 -4 7 -12 3 -18 -3 -7 3 -4 14 6 16 14 23 15 29 6 5 -9
11 -7 21 6 9 13 13 14 13 5 0 -9 5 -7 15 6 8 11 15 14 15 7 0 -7 5 -13 11 -13
5 0 7 5 4 10 -3 6 3 10 15 10 13 0 19 -4 14 -12 -4 -7 -3 -8 5 -4 6 4 8 12 5
18 -5 7 -1 9 9 5 9 -3 18 -1 20 6 3 9 9 8 22 -3 15 -12 17 -12 10 -1 -6 11 -4
13 8 8 8 -3 21 1 27 9 7 8 18 14 24 14 6 0 4 -5 -4 -10 -9 -6 -10 -10 -3 -10
6 0 15 5 18 10 3 6 17 10 31 10 18 0 23 4 18 13 -5 7 0 6 11 -3 15 -12 17 -12
10 -1 -6 11 -2 13 18 9 15 -3 24 -2 22 2 -3 5 2 11 11 14 12 5 15 2 10 -10 -5
-14 -4 -15 9 -4 12 10 15 10 15 -4 0 -9 5 -16 11 -16 5 0 7 5 3 12 -4 7 -3 8
4 4 6 -4 9 -13 6 -20 -3 -7 3 -19 13 -27 16 -13 17 -12 4 4 -12 15 -12 17 3
11 9 -3 16 -16 17 -28 0 -11 3 -16 6 -9 3 9 10 7 25 -7 11 -10 17 -23 13 -29
-3 -7 -3 -11 2 -10 20 3 34 -2 28 -11 -3 -5 -2 -10 4 -10 5 0 12 6 14 13 5 11
11 -18 8 -36 -1 -5 3 -6 8 -3 5 4 12 0 14 -6 4 -10 6 -10 6 1 1 9 6 8 19 -6 9
-10 13 -13 8 -6 -7 11 -4 12 19 3 24 -9 26 -8 21 7 -6 15 -5 15 13 -1 12 -11
25 -15 33 -10 7 5 27 9 43 9 18 0 30 6 30 14 0 7 8 18 18 25 22 17 22 27 0 19
-12 -3 -10 0 5 11 12 10 19 22 16 28 -4 6 -3 8 2 5 14 -8 37 8 40 27 1 9 -2
13 -8 10 -7 -5 -8 -2 -4 5 5 7 15 10 23 6 14 -5 14 -3 2 12 -8 9 -9 14 -4 11
6 -3 16 0 23 8 8 9 9 14 2 14 -6 0 -9 4 -5 10 3 5 13 6 23 3 15 -6 15 -5 3 10
-12 15 -11 17 3 17 9 0 16 5 16 11 0 5 -6 7 -13 3 -7 -4 -9 -3 -4 2 5 5 12 9
15 9 4 0 18 11 30 23 l24 24 -24 -7 c-22 -7 -22 -7 -3 8 11 8 24 13 30 9 5 -3
4 2 -4 11 -12 15 -12 17 4 10 15 -5 17 -3 12 11 -5 11 -3 15 5 10 7 -5 9 -2 6
8 -7 17 39 81 52 73 5 -3 12 0 16 6 4 8 3 9 -4 5 -7 -4 -12 -2 -12 3 0 6 5 11
11 11 5 0 7 5 4 10 -3 6 2 10 12 10 15 0 16 2 3 10 -13 9 -7 14 13 11 4 0 7 5
7 13 0 8 7 16 15 19 8 4 12 15 10 26 -3 15 0 18 12 14 13 -5 15 -2 10 11 -4
10 -3 15 3 11 6 -4 13 7 16 24 4 17 11 31 16 31 5 0 6 -5 2 -12 -4 -6 -3 -8 4
-4 6 3 9 15 7 26 -2 11 -1 19 3 19 22 -4 30 3 27 22 -3 15 0 19 10 15 8 -3 15
-1 15 3 0 5 -6 12 -12 14 -10 4 -10 6 0 6 8 1 10 6 6 13 -6 10 -4 10 8 0 14
-11 16 -10 11 7 -4 15 1 23 18 30 14 6 17 10 9 11 -12 0 -11 3 3 11 9 6 15 14
12 19 -3 5 -1 11 5 15 6 4 7 11 4 17 -5 7 -1 9 9 5 11 -4 17 -1 17 7 0 8 7 16
15 19 8 4 12 15 10 26 -2 14 1 18 11 14 8 -3 15 1 15 11 3 31 4 35 19 48 12
11 12 10 0 -7 -14 -19 -14 -19 3 -6 10 8 16 20 13 28 -3 7 -1 13 4 13 5 0 7 8
3 18 -5 14 -3 13 10 -3 16 -20 16 -20 12 3 -3 19 -1 22 12 18 13 -5 14 -4 3 9
-9 11 -9 15 -1 15 7 0 9 5 5 12 -4 6 -3 8 3 5 6 -4 17 1 24 10 12 14 12 16 -1
9 -8 -4 -5 1 7 10 24 17 33 43 10 28 -7 -5 -4 -1 6 8 11 10 24 15 31 11 6 -4
5 1 -3 11 -12 14 -12 19 -1 29 10 10 11 9 5 -3 -8 -13 -6 -13 7 -2 9 8 14 20
11 28 -3 8 1 14 10 14 9 0 19 5 23 12 5 7 2 9 -7 4 -8 -4 -5 0 6 9 11 9 20 24
20 33 0 10 8 16 19 15 13 -1 15 2 7 10 -7 7 -2 17 17 35 15 13 22 21 15 18 -6
-3 -15 -1 -19 5 -4 7 -3 9 3 6 6 -4 19 1 29 9 10 9 13 13 7 9 -19 -9 -16 10 4
26 14 12 16 12 8 0 -5 -9 -4 -12 3 -7 6 3 9 15 7 26 -3 13 1 17 11 13 9 -3 12
0 9 9 -7 18 33 61 48 52 9 -5 9 -4 0 6 -9 10 -7 17 10 31 21 18 21 19 2 13
-17 -4 -16 -3 3 8 12 8 19 17 15 22 -4 4 1 4 11 0 14 -5 15 -9 4 -15 -11 -7
-10 -10 1 -21 11 -11 13 -11 6 1 -5 9 -4 12 3 7 6 -4 9 -13 5 -21 -3 -9 1 -23
8 -32 8 -9 9 -14 3 -10 -6 3 -11 0 -11 -7 0 -8 6 -12 12 -9 8 3 11 -5 10 -21
-2 -14 2 -26 8 -26 8 0 8 -3 0 -11 -9 -9 -7 -16 6 -28 9 -9 10 -11 2 -6 -12 8
-12 7 -3 -11 6 -12 8 -24 5 -28 -3 -3 2 -6 13 -7 10 0 14 -3 7 -5 -9 -4 -8
-14 2 -43 9 -27 10 -42 3 -49 -7 -7 -3 -14 12 -22 18 -10 19 -14 8 -28 -11
-14 -10 -15 7 -8 16 6 18 5 8 -5 -7 -7 -13 -20 -13 -29 0 -13 2 -13 11 0 9 12
10 11 6 -7 -3 -13 0 -23 6 -23 8 0 7 -4 -1 -12 -7 -7 -12 -17 -12 -22 0 -6 5
-4 10 4 10 16 12 6 13 -62 0 -15 4 -25 9 -22 5 3 5 10 2 16 -4 6 -3 8 2 5 6
-3 10 -24 9 -46 -1 -23 3 -41 8 -41 4 0 6 -4 2 -9 -3 -5 2 -16 10 -24 17 -18
20 -31 5 -22 -5 3 -10 1 -10 -4 0 -6 4 -11 9 -11 5 0 12 -7 15 -16 4 -9 2 -13
-5 -8 -7 4 -7 0 1 -15 6 -12 15 -19 19 -17 4 3 6 -6 3 -19 -3 -17 0 -25 9 -26
8 0 5 -4 -6 -9 -18 -8 -18 -9 -2 -9 10 -1 16 -5 12 -11 -3 -5 -13 -6 -23 -3
-15 6 -16 5 -2 -13 14 -19 14 -19 -8 0 -17 14 -22 16 -22 5 0 -12 -2 -12 -9 0
-7 11 -9 11 -14 0 -5 -12 -7 -12 -15 0 -7 9 -12 10 -16 2 -4 -6 -13 -11 -19
-11 -7 0 -6 4 3 10 9 6 10 10 3 10 -6 0 -15 -5 -19 -11 -4 -8 -9 -7 -15 2 -8
12 -11 11 -19 -1 -9 -13 -10 -13 -10 0 0 13 -1 13 -10 0 -9 -13 -10 -13 -10 0
0 13 -1 13 -10 0 -9 -13 -10 -13 -10 0 0 12 -2 13 -9 1 -5 -7 -14 -10 -20 -7
-6 4 -11 2 -11 -4 0 -6 -5 -8 -10 -5 -6 4 -8 12 -4 18 3 7 -1 4 -9 -5 -11 -14
-16 -15 -26 -5 -10 9 -11 8 -5 -7 5 -13 4 -17 -4 -12 -7 4 -12 1 -12 -7 0 -8
-8 -21 -17 -28 -15 -11 -16 -11 -5 1 6 8 12 19 12 24 0 6 -7 0 -16 -12 -8 -12
-12 -26 -9 -32 4 -6 -1 -7 -11 -3 -13 5 -15 3 -9 -7 6 -10 4 -12 -10 -6 -15 5
-16 4 -5 -9 7 -9 9 -15 4 -14 -5 1 -16 1 -24 0 -13 -1 -13 -2 0 -11 11 -7 11
-10 2 -10 -8 0 -10 -5 -6 -12 5 -9 2 -8 -9 1 -15 12 -17 12 -11 -4 6 -14 4
-16 -6 -10 -10 6 -12 4 -7 -7 4 -11 -1 -18 -15 -21 -13 -4 -17 -10 -12 -18 5
-9 2 -10 -12 -5 -10 4 -15 4 -11 0 4 -4 1 -14 -6 -22 -10 -13 -9 -15 3 -8 17
8 -6 -11 -37 -31 -17 -12 -17 -12 2 -7 13 3 10 -1 -7 -11 -16 -8 -28 -20 -28
-26 0 -6 -5 -7 -11 -3 -7 4 -6 -2 2 -17 12 -23 11 -23 -6 -9 -10 8 -16 10 -12
4 4 -7 0 -15 -9 -18 -9 -4 -14 -9 -11 -13 4 -3 1 -13 -6 -21 -9 -13 -9 -14 0
-8 16 9 16 1 3 -24 -11 -21 11 -46 34 -37 11 4 13 1 9 -11 -6 -15 -5 -16 12
-2 11 9 16 10 11 3 -4 -7 -2 -13 3 -13 6 0 11 5 11 10 0 7 8 6 22 -1 21 -11
22 -11 9 5 -13 16 -13 18 0 16 32 -5 50 0 43 12 -5 9 -2 9 9 -1 11 -8 17 -9
17 -3 0 7 7 9 17 5 11 -4 14 -3 9 6 -9 14 16 11 26 -4 5 -6 8 -3 8 7 0 12 6
15 22 10 13 -3 19 -1 15 6 -8 12 11 11 32 -2 10 -6 12 -5 7 2 -4 7 -2 12 4 12
6 0 8 5 4 12 -5 8 -1 8 10 -1 13 -11 19 -12 25 -3 4 7 15 10 23 7 9 -4 19 -1
24 6 5 8 3 10 -6 4 -9 -5 -11 -4 -6 4 6 9 11 9 24 -1 9 -8 13 -8 9 -2 -4 7 0
14 8 17 10 4 12 1 8 -11 -4 -12 0 -11 16 6 24 24 41 29 41 10 0 -10 3 -9 9 1
5 8 14 10 22 6 9 -6 11 -3 6 9 -5 12 -3 15 5 9 21 -12 49 -11 38 2 -7 8 -5 12
5 12 8 0 15 -7 15 -16 0 -14 2 -14 10 -1 7 11 10 11 10 2 0 -7 4 -10 10 -7 6
4 7 -1 3 -12 -6 -16 -5 -17 12 -3 11 9 16 10 11 3 -4 -8 -1 -13 8 -13 9 0 16
-4 16 -10 0 -5 12 -10 28 -10 22 0 24 -2 12 -11 -12 -9 -11 -10 7 -6 16 4 20
1 16 -11 -4 -10 -2 -13 5 -8 7 4 12 3 12 -3 0 -6 7 -7 17 -4 9 4 14 2 10 -3
-3 -6 8 -10 28 -10 18 0 31 4 29 8 -3 5 -1 8 5 8 5 0 12 -6 14 -12 4 -10 6
-10 6 0 1 6 8 12 16 12 8 0 22 8 32 18 10 11 30 18 45 17 24 -2 26 0 15 13 -7
10 -8 13 -1 9 7 -4 17 0 24 8 9 11 17 12 32 4 16 -8 19 -8 13 1 -5 8 -3 11 6
8 7 -2 22 5 32 16 10 12 16 15 12 9 -3 -7 -1 -13 4 -13 6 0 11 7 11 15 0 9 6
12 17 8 10 -4 14 -2 10 4 -4 6 3 9 18 7 14 -1 23 1 20 6 -4 7 31 23 48 21 4
-1 7 3 7 8 0 6 9 8 20 6 11 -2 23 1 26 7 5 7 2 8 -7 4 -8 -4 -3 2 11 14 20 18
21 21 6 16 -19 -7 -19 -6 -1 14 10 11 13 20 7 20 -7 0 -12 5 -12 11 0 5 4 8 8
5 5 -3 9 1 9 9 0 8 -4 15 -9 15 -4 0 -8 5 -8 11 0 5 5 7 11 3 7 -4 7 1 -1 16
-8 15 -8 20 -1 16 6 -4 11 -2 11 3 0 6 -5 11 -11 11 -8 0 -7 6 2 17 11 13 11
17 2 20 -7 3 -13 9 -13 14 0 6 6 7 13 3 9 -6 9 -4 -1 8 -10 13 -10 17 0 21 8
4 9 8 3 14 -19 15 -17 36 2 29 17 -6 17 -5 0 8 -17 13 -25 32 -9 22 5 -3 9 1
9 9 0 8 -4 15 -9 15 -4 0 -8 5 -8 11 0 5 5 7 11 3 7 -4 7 1 -1 16 -8 15 -8 20
-1 16 6 -4 11 -3 11 3 0 5 -6 12 -13 14 -9 4 -9 8 2 15 9 7 10 12 2 16 -6 4
-11 13 -11 19 0 7 4 6 10 -3 5 -8 10 -10 10 -4 0 5 -5 15 -12 22 -9 9 -9 12 1
12 11 0 11 3 0 17 -10 11 -10 14 -1 9 6 -4 12 -2 12 3 0 6 -6 11 -12 11 -9 0
-8 4 2 10 10 6 11 10 3 10 -7 0 -13 5 -13 11 0 5 4 8 8 5 5 -3 9 1 9 9 0 8 -4
15 -9 15 -4 0 -8 5 -8 11 0 5 5 7 11 3 7 -4 7 1 -1 16 -8 15 -8 20 -1 16 6 -4
11 -3 11 3 0 5 -6 12 -12 14 -10 4 -10 8 1 15 9 7 10 12 2 16 -6 4 -11 13 -11
19 0 7 4 6 10 -3 5 -8 10 -10 10 -4 0 5 -5 15 -12 22 -9 9 -9 12 1 12 11 0 11
3 0 17 -10 11 -10 14 -1 9 6 -4 12 -2 12 3 0 6 -6 11 -12 11 -9 0 -8 4 2 10
10 6 11 10 3 10 -7 0 -13 5 -13 11 0 5 4 8 8 5 5 -3 9 1 9 9 0 8 -4 15 -9 15
-4 0 -8 5 -8 11 0 5 5 7 11 3 7 -4 7 1 -1 16 -8 15 -8 20 -1 16 6 -4 11 -3 11
3 0 5 -6 12 -12 14 -10 4 -10 8 1 15 9 7 10 12 2 16 -6 4 -11 13 -11 19 0 7 4
6 10 -3 5 -8 10 -10 10 -4 0 5 -5 15 -12 22 -9 9 -9 12 1 12 11 0 11 3 0 17
-10 11 -10 14 -1 9 6 -4 12 -2 12 3 0 6 -6 11 -12 11 -9 0 -8 4 2 10 10 6 11
10 3 10 -7 0 -13 5 -13 11 0 5 4 8 8 5 5 -3 9 1 9 9 0 8 -4 15 -8 15 -4 0 -6
11 -5 24 1 20 4 22 15 13 12 -10 12 -9 3 10 -14 26 -15 36 -3 28 6 -3 8 4 5
17 -11 46 -9 63 6 76 12 9 12 12 1 10 -9 -2 -15 9 -17 32 -2 23 0 30 6 20 7
-11 9 -10 7 7 0 12 -5 19 -9 17 -4 -3 -8 0 -8 5 0 6 6 11 13 11 7 0 4 7 -7 15
-17 13 -17 15 -3 15 9 0 15 6 13 13 -12 37 -16 68 -8 63 5 -3 9 1 9 9 0 8 -3
12 -6 11 -3 -2 -7 7 -7 20 -1 13 1 22 5 19 4 -2 8 2 8 10 0 8 -4 12 -9 9 -14
-9 -9 8 8 27 12 13 12 19 3 25 -7 4 -10 3 -5 -4 3 -6 3 -13 -2 -16 -4 -2 -9 4
-9 15 -1 11 5 19 14 19 11 0 9 5 -8 19 -22 18 -22 20 -7 26 14 5 15 11 8 25
-12 23 -13 33 -1 26 5 -4 8 2 6 11 -1 10 -9 17 -16 15 -10 -1 -9 2 2 10 12 10
14 19 7 37 -8 22 -7 22 9 10 9 -8 14 -9 10 -2 -4 6 -3 14 3 18 5 3 10 1 10 -4
0 -6 8 -11 18 -11 12 0 14 2 4 9 -8 4 10 7 42 7 33 -1 52 -5 49 -11 -3 -5 0
-4 8 2 17 17 32 17 23 1 -6 -10 -4 -10 8 0 13 10 17 10 21 0 4 -10 7 -10 15 1
8 11 10 11 15 0 5 -12 6 -12 6 0 1 11 4 11 18 0 11 -10 14 -10 9 -2 -4 7 -3
13 3 13 5 0 12 -6 14 -12 4 -10 8 -9 16 2 7 9 14 11 19 5 10 -13 35 -18 27 -5
-3 5 -2 10 4 10 5 0 12 -6 14 -12 4 -10 8 -9 16 2 10 13 12 13 21 0 9 -13 10
-13 10 0 0 13 1 13 10 0 9 -13 11 -13 21 0 8 11 12 12 16 3 2 -7 9 -13 14 -13
6 0 7 6 3 13 -5 8 -2 8 9 -2 14 -11 17 -11 17 0 0 12 2 12 9 0 7 -11 9 -11 14
0 5 12 7 12 15 0 7 -9 12 -10 16 -2 4 6 13 11 19 11 7 0 6 -4 -3 -10 -9 -6
-10 -10 -3 -10 6 0 15 5 19 11 4 8 9 7 15 -2 8 -12 11 -11 19 1 9 13 10 13 10
0 0 -13 1 -13 10 0 9 13 11 13 20 0 9 -13 11 -13 21 0 8 11 12 12 16 3 2 -7 9
-13 14 -13 6 0 7 5 3 11 -4 7 1 7 16 -1 15 -8 20 -8 16 -1 -13 20 9 12 24 -9
8 -11 20 -20 27 -20 6 0 15 -9 18 -20 4 -11 11 -18 16 -15 5 3 6 -1 3 -9 -4
-11 0 -16 15 -16 12 0 20 -3 20 -7 -3 -19 2 -33 12 -33 5 0 7 5 3 12 -4 7 -3
8 5 4 9 -6 9 -11 0 -22 -7 -9 -8 -14 -3 -13 21 4 35 -2 29 -11 -3 -5 1 -10 10
-10 9 0 13 -5 10 -10 -3 -6 1 -10 9 -10 8 0 18 -5 22 -12 5 -7 3 -8 -7 -3 -8
5 -2 -4 13 -20 16 -15 28 -32 28 -38 0 -6 3 -7 6 -4 4 4 2 13 -4 20 -9 10 -8
14 3 14 8 0 12 -4 9 -8 -2 -4 2 -14 10 -22 8 -8 12 -18 8 -22 -4 -5 2 -5 12
-1 16 5 17 4 7 -8 -11 -13 -9 -15 8 -11 11 2 20 1 20 -3 -3 -20 3 -31 21 -37
11 -3 20 -13 20 -22 0 -10 6 -13 16 -9 8 3 13 2 10 -2 -2 -4 -1 -14 5 -22 7
-13 9 -13 9 0 0 13 1 13 10 0 9 -13 10 -13 11 0 0 8 4 4 8 -10 4 -14 14 -24
23 -24 10 1 14 -4 11 -12 -3 -8 0 -14 7 -14 9 0 9 -4 -1 -17 -8 -9 -9 -14 -4
-11 6 3 15 0 22 -7 10 -11 10 -15 0 -18 -7 -3 -6 -6 4 -6 9 -1 25 -13 35 -29
16 -24 16 -25 1 -13 -15 12 -17 12 -11 -3 3 -9 10 -16 16 -16 5 0 6 -4 3 -10
-4 -6 1 -7 12 -3 16 6 17 5 3 -12 -14 -17 -13 -18 3 -12 11 4 16 3 12 -3 -3
-6 0 -10 7 -10 9 0 9 -3 -2 -10 -13 -8 -12 -10 4 -10 11 0 16 -3 13 -7 -4 -3
1 -12 11 -20 9 -8 11 -11 4 -8 -11 6 -12 3 -2 -15 6 -12 17 -19 24 -17 7 3 13
-1 13 -9 0 -7 -4 -11 -9 -8 -5 4 -4 -3 4 -15 7 -12 18 -21 24 -21 6 0 10 -12
8 -26 -2 -19 1 -24 12 -20 9 3 12 1 9 -4 -3 -6 0 -10 7 -10 9 0 9 -3 -2 -10
-11 -7 -11 -10 -2 -10 8 0 10 -5 6 -12 -5 -8 0 -7 11 2 10 8 16 10 12 4 -4 -6
2 -19 12 -28 12 -11 17 -25 13 -38 -3 -12 -1 -19 4 -15 6 3 16 -4 24 -16 12
-20 12 -21 -4 -8 -14 12 -16 12 -10 -3 6 -15 18 -20 38 -17 5 1 4 -5 -4 -13
-9 -12 -9 -16 -1 -16 7 0 9 -4 6 -10 -6 -9 7 -14 27 -11 4 0 4 -7 1 -16 -4
-10 -2 -14 4 -10 7 5 9 0 6 -13 -4 -13 0 -20 10 -20 8 0 18 -7 21 -16 5 -12 3
-14 -7 -8 -7 5 -4 1 6 -9 11 -9 25 -17 33 -17 8 0 11 -6 7 -17 -4 -11 -3 -14
5 -9 8 5 12 0 12 -14 0 -14 4 -19 13 -14 6 4 9 4 5 -1 -4 -4 -2 -15 5 -24 10
-14 10 -14 -5 -3 -15 12 -17 11 -15 -7 1 -12 7 -21 15 -21 7 0 10 -5 7 -11 -9
-13 3 -61 14 -55 4 3 8 -1 8 -9 0 -8 -4 -12 -8 -10 -4 3 -10 -2 -13 -11 -4
-10 -2 -13 6 -8 7 5 9 0 6 -14 -4 -16 -2 -19 10 -15 11 5 13 3 6 -8 -12 -20
-14 -38 -3 -45 5 -3 14 -15 21 -27 10 -20 10 -21 -6 -8 -14 12 -16 12 -10 -3
3 -9 11 -16 18 -16 6 0 4 -5 -4 -10 -10 -6 -11 -10 -2 -10 6 0 12 -12 12 -26
0 -14 4 -33 9 -42 14 -27 24 -80 11 -62 -6 9 -10 10 -10 3 0 -7 8 -17 18 -22
9 -6 13 -11 8 -11 -5 0 -2 -8 5 -17 8 -9 9 -14 3 -10 -7 4 -15 0 -18 -9 -3 -8
-2 -13 2 -11 4 3 13 -1 20 -9 7 -8 8 -14 2 -14 -12 0 -9 -22 5 -33 6 -5 0 -7
-12 -4 -13 3 -23 1 -23 -4 0 -5 6 -9 13 -9 6 0 4 -5 -6 -11 -9 -5 -22 -7 -29
-3 -8 5 -9 2 -5 -10 5 -14 3 -17 -8 -12 -10 3 -15 -1 -16 -12 0 -10 -3 -12 -6
-4 -2 6 -9 12 -15 12 -6 0 -7 -8 -4 -17 4 -10 4 -14 0 -10 -4 4 -14 1 -22 -6
-9 -6 -13 -7 -9 -1 3 6 0 11 -7 11 -8 0 -12 -8 -9 -21 4 -17 3 -18 -6 -6 -10
13 -14 11 -32 -10 -17 -21 -20 -22 -15 -5 6 20 6 20 -9 1 -15 -20 -50 -33 -39
-14 3 5 -3 4 -15 -4 -12 -7 -21 -20 -21 -28 0 -13 -2 -13 -11 0 -9 12 -10 11
-6 -7 3 -15 0 -23 -9 -23 -8 0 -11 -6 -8 -15 4 -8 11 -12 18 -9 6 3 2 -2 -8
-10 -11 -9 -14 -16 -8 -16 7 0 12 -6 12 -14 0 -8 5 -18 12 -22 8 -5 9 -2 4 11
-7 18 -6 18 14 0 15 -14 20 -15 20 -4 0 11 2 11 10 -1 9 -13 10 -13 10 0 1 11
4 10 15 -4 15 -19 15 -19 15 5 0 14 3 19 8 12 11 -17 60 -24 75 -10 20 19 37
19 37 0 0 -15 2 -14 14 3 8 10 18 16 21 12 4 -4 15 -3 24 2 10 5 23 5 31 0 9
-6 18 -3 25 7 10 13 14 13 20 3 5 -9 4 -11 -3 -6 -7 4 -12 2 -12 -3 0 -9 37
-9 48 0 3 2 19 6 33 8 5 0 8 5 5 9 -3 5 1 9 8 9 8 0 12 -7 10 -16 -2 -9 3 -1
11 17 9 18 20 30 25 27 7 -4 7 3 0 19 -8 21 -6 26 6 26 8 0 12 5 9 10 -4 6
-11 7 -17 4 -6 -4 -8 -3 -5 3 12 20 15 63 5 69 -7 5 -8 2 -3 -6 5 -9 4 -11 -4
-6 -15 10 -5 26 17 26 13 0 13 2 -4 15 -10 8 -14 15 -7 15 13 0 12 25 -2 37
-4 4 -5 2 0 -6 5 -10 4 -12 -4 -7 -15 10 -5 26 17 26 13 0 13 2 -4 15 -14 11
-16 15 -4 15 12 0 10 4 -4 15 -17 13 -17 15 -4 15 22 0 32 16 17 26 -8 5 -9 3
-4 -7 6 -11 5 -12 -5 -2 -12 11 -11 15 6 28 10 8 14 15 7 15 -7 0 -13 5 -13
11 0 5 4 8 8 5 5 -3 9 1 9 9 0 8 -4 15 -9 15 -4 0 -8 5 -8 11 0 5 6 7 13 3 8
-5 8 -2 -2 9 -10 13 -10 17 -1 17 10 0 10 3 0 15 -7 9 -10 18 -6 22 3 3 6 0 6
-7 0 -7 3 -10 6 -7 4 4 1 13 -6 22 -10 12 -10 15 0 15 9 0 9 4 -1 17 -10 11
-10 14 -1 9 6 -4 12 -3 12 3 0 5 -6 12 -12 14 -9 4 -9 8 -3 14 13 10 19 47 7
39 -5 -3 -9 1 -9 9 0 8 5 15 10 15 5 0 3 8 -4 17 -10 11 -10 14 -1 9 6 -4 12
-3 12 3 0 5 -6 12 -12 14 -9 4 -9 8 -3 14 13 10 19 47 7 39 -5 -3 -9 1 -9 9 0
8 3 15 7 15 3 0 6 9 7 20 1 13 -2 18 -10 13 -7 -4 -5 1 3 11 8 10 15 28 17 39
2 18 1 19 -7 7 -6 -9 -10 -10 -10 -3 0 7 8 17 18 23 16 11 16 11 0 6 -21 -6
-23 4 -5 23 6 8 7 11 2 8 -7 -3 -11 8 -11 29 0 19 5 34 11 35 5 0 1 4 -10 9
-18 8 -18 9 -2 9 15 1 16 4 6 23 -10 18 -9 20 7 14 18 -6 18 -5 0 9 -14 11
-16 15 -5 15 10 1 9 5 -5 15 -18 14 -18 15 -2 15 11 0 15 4 9 13 -12 20 -12
37 0 37 7 0 5 5 -3 10 -11 7 -11 10 -2 10 10 0 10 5 1 22 -10 18 -9 20 7 14
18 -6 18 -5 0 9 -11 8 -14 15 -8 15 10 0 10 5 2 20 -6 11 -7 20 -3 19 20 -3
27 2 13 11 -13 9 -13 11 0 20 13 9 13 11 0 20 -13 9 -13 10 0 10 13 0 13 1 0
10 -13 9 -13 11 0 20 13 8 12 11 -5 25 -19 14 -19 15 -1 8 15 -5 18 -3 14 9
-4 9 0 15 8 15 9 0 13 -6 9 -16 -4 -11 0 -10 16 5 12 10 20 15 17 9 -3 -5 0
-16 8 -23 12 -11 14 -10 15 5 0 15 2 15 7 3 4 -8 12 -16 17 -17 6 -1 19 -5 29
-9 13 -5 17 -4 13 3 -5 7 0 9 13 6 11 -3 17 -10 14 -15 -4 -6 2 -7 16 -3 17 6
21 4 14 -6 -6 -12 -5 -12 8 -1 13 10 19 10 32 -3 12 -12 16 -13 16 -3 0 9 3 9
8 2 16 -25 51 -35 75 -23 20 11 21 11 8 -5 -12 -14 -12 -16 3 -10 9 3 16 1 16
-5 0 -6 10 -11 23 -11 18 0 19 -2 7 -10 -13 -9 -13 -10 0 -11 8 -1 18 -1 23 0
11 2 8 -14 -5 -28 -9 -10 -9 -12 -1 -7 6 3 14 2 18 -4 4 -6 12 -7 18 -3 8 4 7
1 -1 -9 -10 -13 -10 -18 -1 -24 8 -4 9 -3 5 4 -4 7 -2 12 3 12 6 0 11 -9 11
-21 0 -11 5 -17 10 -14 9 6 14 -8 11 -28 -1 -5 3 -6 9 -2 5 3 10 0 10 -7 0
-15 45 -70 57 -69 4 1 9 -3 9 -9 1 -5 2 -15 3 -22 0 -6 4 -8 8 -5 9 9 34 -28
30 -45 -2 -7 -2 -10 0 -5 3 4 12 7 21 7 10 0 13 -3 7 -8 -17 -12 -17 -35 0
-29 9 4 15 1 15 -9 0 -8 4 -12 10 -9 6 4 7 -1 3 -11 -4 -12 -3 -15 5 -10 7 4
12 3 12 -3 0 -5 -6 -12 -12 -14 -12 -5 15 -11 34 -8 4 0 5 -8 3 -19 -2 -10 4
-25 13 -32 16 -12 16 -11 2 7 -14 19 -14 19 3 6 10 -8 15 -21 12 -29 -4 -12
-2 -12 8 -4 10 9 14 8 14 -3 0 -8 -5 -15 -11 -16 -6 0 0 -5 13 -10 14 -6 21
-15 18 -24 -4 -9 -1 -12 7 -9 7 3 19 -3 27 -13 13 -17 13 -17 -6 -3 -19 14
-20 14 -2 -6 9 -11 17 -26 17 -32 0 -11 14 -16 33 -13 5 1 6 -8 2 -19 -5 -16
-3 -19 11 -13 14 5 16 2 12 -15 -4 -16 -2 -19 10 -15 11 5 13 3 7 -7 -6 -10
-4 -12 7 -7 12 4 15 0 13 -18 -1 -13 1 -24 4 -23 3 1 15 -3 25 -7 19 -8 19 -9
0 -16 -15 -6 -16 -8 -3 -8 18 -1 35 -31 17 -31 -7 0 -6 -6 2 -16 8 -8 9 -14 3
-12 -6 2 -11 -1 -11 -7 0 -5 4 -9 9 -7 14 3 11 -4 -8 -19 -14 -12 -16 -12 -8
0 5 10 4 12 -4 7 -6 -4 -9 -12 -5 -17 3 -5 0 -17 -8 -26 -9 -12 -9 -15 -1 -9
9 5 11 2 7 -8 -3 -9 -11 -13 -17 -9 -7 4 -8 0 -3 -13 18 -43 18 -48 4 -30 -14
18 -15 17 -13 -18 1 -20 -3 -40 -8 -43 -6 -4 -7 -1 -2 7 5 8 4 11 -3 7 -5 -4
-9 -19 -7 -33 2 -19 -1 -24 -13 -19 -12 4 -13 3 -2 -10 10 -12 10 -15 -1 -15
-11 0 -11 -2 1 -10 12 -7 12 -10 1 -10 -8 0 -11 -6 -7 -16 4 -11 2 -15 -7 -11
-8 3 -14 -1 -14 -9 0 -7 4 -11 9 -8 4 3 5 -2 2 -10 -3 -9 -11 -13 -18 -9 -6 4
-5 -1 3 -11 8 -9 10 -16 5 -14 -5 2 -19 -7 -32 -20 -14 -14 -30 -21 -39 -18
-13 5 -14 4 -3 -9 11 -13 10 -14 -4 -9 -11 4 -16 1 -17 -12 0 -11 -3 -14 -6
-6 -2 6 -9 12 -14 12 -4 0 -6 -7 -3 -15 5 -11 2 -13 -10 -9 -11 4 -16 1 -16
-10 0 -10 -6 -13 -16 -9 -10 4 -17 -1 -21 -16 -3 -11 -10 -21 -15 -21 -5 0 -6
6 -2 12 6 10 5 10 -8 1 -8 -7 -19 -9 -23 -5 -5 4 -5 1 -1 -5 4 -7 2 -21 -3
-30 -6 -10 -11 -12 -11 -5 0 6 -5 12 -11 12 -6 0 -9 -7 -6 -14 4 -11 1 -13
-10 -9 -11 4 -14 2 -9 -5 5 -8 2 -10 -8 -6 -11 4 -16 0 -16 -12 0 -9 -3 -15
-6 -11 -4 3 -14 -2 -23 -11 -9 -10 -12 -12 -7 -5 6 10 4 12 -8 7 -9 -3 -16
-13 -16 -21 0 -9 -6 -13 -13 -10 -8 3 -14 0 -14 -6 0 -7 -2 -19 -4 -27 -2 -8
1 -14 7 -13 7 1 10 -5 7 -16 -2 -9 3 -24 12 -31 14 -12 18 -12 27 1 7 11 11
11 15 2 2 -7 9 -13 14 -13 6 0 7 5 3 11 -4 7 1 7 16 -1 15 -8 20 -8 16 -1 -4
6 -2 11 3 11 6 0 11 -4 11 -8 0 -5 7 -9 15 -9 8 0 12 4 9 9 -3 4 0 8 5 8 6 0
11 -4 11 -10 0 -5 5 -10 11 -10 5 0 8 4 5 8 -6 10 30 9 40 -1 11 -10 24 -8 24
4 0 5 -5 7 -12 3 -6 -4 -8 -3 -5 4 6 8 42 10 42 2 0 -1 10 -3 23 -4 12 -2 22
2 22 8 0 6 5 4 10 -4 7 -11 10 -11 10 -2 0 9 5 10 19 2 14 -7 22 -7 27 2 5 7
3 8 -7 3 -8 -5 -11 -4 -6 1 5 5 18 9 30 9 13 0 22 7 23 15 1 30 16 60 26 54 8
-5 9 -1 5 10 -4 10 -3 15 3 11 6 -3 10 3 10 13 0 12 6 19 16 18 9 0 19 6 21
14 4 13 3 13 -6 0 -7 -9 -11 -10 -11 -3 0 6 5 15 10 18 6 4 8 11 5 16 -3 5 2
6 11 2 12 -4 15 -3 10 5 -4 7 -2 12 4 12 6 0 8 5 5 10 -3 6 0 10 8 10 8 0 18
7 21 16 5 12 3 14 -7 8 -7 -5 -5 -1 5 8 11 9 18 20 18 23 -1 3 1 11 3 18 4 9
6 8 6 -2 1 -8 8 -4 20 10 15 19 17 28 8 44 -9 19 -9 19 8 5 11 -9 16 -10 11
-2 -4 7 -2 12 5 12 7 0 9 3 6 7 -4 3 2 12 12 20 12 8 18 21 16 34 -3 16 0 19
12 15 12 -5 14 -1 10 14 -4 17 -3 19 8 10 12 -10 13 -8 10 10 -3 16 0 20 11
16 12 -5 12 -2 3 15 -8 15 -8 19 0 15 18 -12 34 4 21 19 -9 11 -8 13 7 11 14
-3 19 1 19 17 -1 15 5 22 17 21 14 -2 15 1 6 13 -10 11 -10 14 2 11 8 -2 13 3
11 10 -3 16 10 16 27 -1 10 -10 11 -8 5 7 -5 13 -4 17 4 12 7 -4 12 -2 12 4 0
6 5 8 10 5 6 -3 10 0 10 8 0 9 9 13 24 12 13 -2 29 1 37 6 8 5 10 9 4 9 -5 0
1 7 15 15 19 10 28 11 39 2 12 -10 13 -9 6 2 -6 11 -3 13 13 9 14 -4 19 -2 16
7 -3 7 0 16 7 21 8 4 10 3 5 -5 -9 -14 38 -11 51 4 4 4 2 5 -4 1 -7 -4 -13 -3
-13 2 0 5 9 12 20 15 13 3 18 1 14 -6 -3 -7 0 -5 8 4 7 9 19 14 26 12 6 -3 12
1 12 7 0 10 4 9 15 0 13 -11 14 -10 9 4 -5 12 -2 15 12 9 12 -4 15 -3 10 5 -5
8 -1 10 10 5 13 -5 15 -3 9 8 -7 12 -6 12 8 1 13 -12 18 -10 29 7 7 12 16 21
21 21 4 0 5 -4 2 -10 -3 -5 -2 -10 3 -10 6 0 13 8 16 17 6 15 8 15 16 3 8 -13
10 -12 10 2 0 11 5 15 14 12 8 -3 17 0 21 5 3 6 11 8 17 5 7 -5 9 -1 5 9 -8
22 -3 21 19 0 17 -17 18 -17 11 0 -4 11 -2 17 8 17 8 0 15 6 15 13 0 8 4 7 10
-3 8 -12 12 -12 18 -2 5 7 18 14 30 15 11 0 18 5 15 11 -4 5 1 7 11 3 10 -4
19 -1 23 9 5 13 7 13 14 2 7 -10 9 -11 9 0 0 7 5 10 10 7 6 -4 10 -3 9 2 -3
19 2 27 10 15 7 -11 13 -9 31 10 21 21 22 21 16 3 -5 -18 -4 -18 6 -4 7 9 21
15 30 13 11 -1 15 3 11 12 -6 16 17 15 30 -1 5 -6 7 0 4 13 -4 15 -1 20 6 15
21 -13 38 -12 44 3 3 8 9 12 13 9 14 -9 40 6 33 19 -4 6 1 5 11 -3 15 -12 17
-12 14 0 -2 9 6 14 24 14 14 0 30 4 35 9 5 5 3 6 -4 2 -7 -4 -13 -2 -13 5 0 7
10 9 25 7 13 -3 22 -2 20 3 -3 4 -1 10 5 14 5 3 10 1 10 -4 0 -6 5 -11 10 -11
6 0 10 6 10 14 0 9 7 12 20 9 12 -3 22 1 26 11 8 22 25 20 18 -1 -3 -10 2 -6
11 10 14 23 19 26 37 16 11 -6 18 -7 14 -1 -7 12 40 25 57 15 7 -4 6 0 -2 10
-12 15 -12 17 4 11 12 -5 16 -4 12 3 -5 7 1 9 15 5 14 -3 19 -1 14 6 -3 6 -1
14 5 18 8 4 9 3 5 -4 -11 -19 15 -14 31 6 8 9 11 10 7 3 -5 -9 5 -6 23 7 17
12 35 22 40 22 4 0 1 -5 -7 -10 -8 -5 -10 -10 -5 -10 6 1 19 7 29 15 10 8 24
12 29 8 6 -4 8 0 4 11 -4 10 -3 15 4 11 5 -4 17 -1 26 7 12 9 15 9 9 1 -4 -7
-2 -13 3 -13 6 0 11 5 11 10 0 6 9 10 19 10 11 0 23 5 27 12 5 7 3 8 -6 3 -9
-6 -11 -4 -6 4 5 7 10 10 13 7 3 -3 15 -1 26 5 14 8 18 8 13 0 -4 -6 -2 -11 3
-11 6 0 11 4 11 10 0 5 10 15 23 21 21 12 21 11 7 -7 -14 -18 -14 -18 6 -2 11
10 26 18 32 18 7 0 12 5 12 10 0 6 5 10 11 10 5 0 7 -6 4 -12 -4 -7 0 -5 8 4
8 10 17 15 20 11 4 -3 13 0 21 6 8 7 21 9 27 5 8 -4 9 -3 5 4 -5 8 1 12 14 12
12 0 19 4 15 9 -3 5 0 13 6 17 7 4 9 3 5 -4 -4 -6 1 -10 13 -9 11 0 18 4 16 7
-2 3 8 10 21 17 13 6 22 7 18 2 -3 -5 2 -6 10 -3 9 3 14 10 11 14 -3 5 5 6 17
2 16 -4 19 -2 13 8 -6 10 -2 12 18 8 14 -3 26 -2 25 1 -2 19 4 22 17 11 13
-11 14 -10 9 5 -6 15 -4 16 15 6 17 -9 21 -9 19 1 -2 8 6 13 19 12 19 0 21 2
10 14 -10 13 -9 14 12 3 19 -11 22 -11 16 0 -6 9 -3 11 9 6 9 -4 14 -3 11 2
-3 5 -1 12 5 16 5 3 10 1 10 -6 0 -7 7 -4 16 7 8 10 13 13 9 7 -4 -10 0 -10
17 -4 13 5 22 15 20 22 -2 10 0 10 11 0 12 -9 16 -8 21 4 3 8 14 15 25 15 11
0 22 4 26 9 3 6 13 10 23 10 48 2 52 4 39 19 -10 13 -9 14 9 4 18 -9 24 -8 35
6 13 16 12 16 -6 2 -19 -14 -19 -14 -6 3 10 13 17 15 27 6 11 -9 14 -8 14 5 0
10 5 14 10 11 6 -4 8 -12 4 -18 -3 -7 3 -2 14 10 11 12 22 19 26 16 3 -4 6 0
7 8 0 8 4 6 9 -6 8 -19 9 -19 9 -1 1 13 6 17 20 13 15 -4 18 -1 13 12 -5 14
-4 14 12 2 13 -11 16 -11 14 -2 -2 8 9 14 25 16 16 2 36 12 44 22 8 10 11 11
7 3 -7 -13 -6 -13 11 0 10 8 19 13 19 11 1 -2 11 -1 24 3 13 5 20 12 15 19 -4
7 0 6 10 -2 14 -11 18 -11 23 3 3 9 11 13 17 9 7 -4 8 0 3 12 -5 15 -4 16 9 5
11 -9 15 -9 15 -1 0 7 5 9 10 6 6 -4 7 -11 4 -17 -4 -7 -2 -8 5 -4 6 4 9 11 7
15 -3 4 4 13 16 20 13 8 18 9 13 1 -9 -14 36 10 47 25 5 6 8 5 8 -2 0 -7 5
-13 11 -13 5 0 8 3 6 7 -3 5 1 14 9 21 9 8 14 9 14 2 0 -6 5 -8 10 -5 6 4 7
12 3 18 -4 7 0 6 10 -2 12 -9 17 -10 17 -2 0 7 5 9 12 5 8 -5 9 -1 4 12 -6 15
-4 16 5 7 9 -9 15 -8 26 3 8 8 27 14 41 14 34 0 75 27 68 45 -3 9 1 12 13 10
12 -2 18 2 17 13 0 9 5 16 12 14 8 -1 16 6 19 17 3 10 13 21 24 24 14 4 17 10
12 24 -3 10 -3 15 1 12 4 -4 22 9 41 28 19 19 39 32 45 28 6 -3 7 0 4 9 -3 9
-2 16 3 16 6 0 15 10 22 23 l11 22 -6 -23 c-6 -23 -5 -23 15 -5 22 18 28 29
11 18 -6 -3 -7 1 -4 9 3 9 10 14 14 11 8 -5 24 23 22 36 -1 4 8 5 18 2 15 -4
19 -1 14 10 -3 8 0 18 7 23 7 4 10 3 5 -4 -3 -6 -2 -14 4 -17 6 -4 10 -3 9 2
-3 19 2 34 10 29 4 -3 13 6 19 19 10 22 22 30 44 26 4 0 5 6 2 14 -4 9 3 18
18 24 30 11 52 37 43 51 -5 9 14 15 37 11 4 0 5 5 2 13 -3 8 0 17 7 22 8 5 10
3 5 -7 -4 -8 -1 -5 8 5 8 10 13 22 11 26 -3 4 3 7 13 6 9 0 16 5 14 12 -1 7 9
17 23 22 14 5 24 15 23 22 -2 7 3 12 10 10 6 -1 12 2 12 8 0 6 3 9 8 9 20 -3
25 2 12 12 -12 9 -11 10 8 6 23 -5 31 8 10 16 -8 3 -5 6 5 6 11 1 16 6 12 14
-4 6 1 3 11 -8 15 -18 16 -18 10 -1 -4 12 2 26 19 42 14 13 25 29 25 36 0 9 3
9 10 -2 8 -13 10 -13 10 2 0 9 5 20 12 24 7 5 9 2 4 -7 -4 -8 -1 -5 8 5 8 10
13 23 10 27 -3 5 2 6 10 3 9 -3 19 3 26 16 6 12 16 18 23 13 8 -4 7 -1 -1 10
-12 14 -11 16 6 12 13 -2 19 2 18 13 -1 11 6 16 17 16 10 -1 19 7 23 21 3 14
11 22 19 19 7 -3 15 4 18 16 4 14 10 19 18 14 8 -4 10 -3 5 4 -4 7 -4 18 1 25
11 18 12 36 2 43 -5 3 -9 19 -9 35 0 18 -4 28 -10 24 -5 -3 -10 1 -10 10 0 9
5 13 11 9 6 -3 4 5 -5 18 -9 14 -13 28 -9 32 4 4 1 11 -7 16 -13 9 -13 10 0
10 13 0 13 1 0 10 -13 9 -13 10 0 10 13 0 13 1 0 10 -9 6 -14 21 -12 42 2 25
0 29 -7 18 -6 -8 -11 -10 -11 -4 0 5 5 15 12 22 9 9 9 12 0 12 -7 0 -12 5 -12
11 0 5 5 7 12 3 7 -4 8 -3 4 4 -4 7 -15 12 -24 13 -12 0 -11 3 6 9 12 5 22 12
22 15 0 4 -4 3 -10 0 -5 -3 -10 1 -10 9 0 9 -5 16 -11 16 -6 0 -7 5 -2 13 11
18 13 38 2 31 -9 -5 -10 0 -13 44 0 12 -8 27 -16 33 -13 9 -13 10 2 6 21 -7
18 16 -7 43 -16 18 -17 20 -2 14 13 -5 16 -2 11 10 -3 9 -11 16 -18 16 -6 0
-4 5 4 10 12 8 12 10 1 10 -9 0 -12 9 -9 29 2 17 1 28 -3 26 -4 -3 -10 2 -13
11 -3 8 -2 12 4 9 6 -3 10 -1 10 4 0 6 -4 11 -9 11 -14 0 -21 29 -9 36 7 5 8
2 3 -6 -5 -9 -4 -11 4 -6 9 6 9 11 1 21 -7 8 -9 19 -5 24 4 7 -1 8 -12 4 -14
-5 -16 -4 -7 8 9 12 10 30 5 69 0 5 -9 6 -18 3 -17 -7 -17 -6 0 11 19 19 22
27 8 23 -5 -1 -9 3 -9 8 0 6 5 9 11 7 7 -2 6 2 -1 11 -7 8 -8 18 -4 23 4 4 -2
2 -12 -6 -18 -14 -19 -14 -7 8 7 14 8 22 1 22 -5 0 -10 5 -10 11 0 5 4 7 10 4
6 -3 7 1 4 9 -3 9 -11 13 -18 9 -6 -4 -5 1 3 10 7 9 9 17 3 17 -5 0 -13 7 -16
16 -5 14 -4 15 9 4 13 -11 14 -10 9 4 -3 9 -10 16 -16 16 -5 0 -6 5 -3 10 4 6
1 18 -7 27 -9 12 -9 15 0 9 6 -4 12 -2 12 3 0 6 -4 11 -9 11 -13 0 -21 39 -10
46 6 4 6 10 0 18 -7 9 -7 16 2 25 10 11 8 11 -10 2 -19 -10 -22 -9 -17 4 4 8
10 15 16 15 5 0 3 7 -5 15 -9 8 -13 24 -10 35 3 11 0 20 -6 20 -6 0 -11 5 -11
11 0 5 5 7 10 4 6 -3 10 1 10 10 0 9 -4 14 -9 11 -5 -3 -12 1 -15 10 -4 11 -2
15 8 11 10 -4 13 -1 9 8 -3 8 -9 13 -13 10 -5 -3 -6 5 -2 17 4 16 2 19 -8 13
-10 -6 -11 -4 -4 6 14 23 13 40 -2 46 -8 3 -12 9 -9 13 3 5 1 11 -5 15 -5 3
-10 -2 -10 -12 -1 -16 -1 -17 -10 -1 -8 13 -17 15 -40 8 -17 -5 -30 -6 -30 -2
0 4 -7 -3 -15 -15 -9 -12 -14 -28 -13 -35 2 -7 -3 -12 -11 -10 -12 3 -12 0 -1
-12 10 -13 10 -16 -1 -16 -10 -1 -9 -5 4 -14 17 -13 17 -14 -1 -18 -20 -6 -26
-38 -8 -38 6 0 4 -5 -4 -10 -11 -7 -12 -10 -2 -10 10 0 10 -4 -2 -16 -13 -12
-14 -20 -5 -36 8 -16 8 -19 -1 -13 -9 5 -10 1 -5 -14 5 -17 3 -20 -12 -15 -16
5 -16 4 -1 -5 18 -12 16 -54 -3 -78 -13 -15 -2 -36 14 -26 7 4 6 0 -2 -10 -15
-19 -26 -23 -15 -5 5 7 3 8 -5 3 -9 -5 -10 -10 -2 -18 13 -13 15 -31 3 -23 -5
3 -9 -1 -9 -9 0 -8 3 -12 7 -10 4 2 7 -3 7 -11 0 -8 -5 -13 -11 -11 -13 5 -14
-32 -2 -51 4 -7 2 -12 -5 -12 -8 0 -7 -5 2 -17 8 -9 9 -14 3 -10 -16 10 -28
-25 -12 -35 10 -6 10 -8 -2 -8 -12 0 -12 -2 -1 -9 9 -6 10 -10 2 -16 -9 -5 -9
-10 0 -21 10 -12 9 -13 -4 -8 -14 5 -15 1 -7 -25 6 -21 5 -31 -2 -31 -6 0 -5
-6 2 -16 11 -13 10 -16 -8 -21 -13 -3 -19 -10 -15 -17 4 -6 0 -5 -9 2 -13 10
-18 10 -24 1 -5 -8 -3 -9 6 -4 9 6 11 4 6 -4 -5 -7 -10 -10 -13 -7 -3 2 -15 1
-28 -4 -15 -6 -27 -4 -34 3 -10 9 -15 8 -25 -5 -7 -10 -16 -15 -19 -11 -4 3
-14 0 -24 -8 -9 -8 -14 -9 -10 -2 9 14 -22 11 -31 -3 -11 -16 -39 -23 -49 -13
-11 11 -45 1 -38 -11 2 -4 -7 -5 -22 -2 -20 4 -24 2 -18 -9 7 -11 5 -11 -10 1
-17 13 -18 13 -13 -1 5 -12 -1 -15 -27 -13 -20 2 -38 -3 -45 -11 -7 -8 -17
-12 -23 -8 -7 4 -20 8 -29 8 -15 1 -15 -1 -5 -13 10 -13 9 -14 -10 -4 -16 9
-24 9 -29 0 -5 -7 -3 -8 6 -3 9 5 11 4 6 -4 -6 -9 -11 -9 -22 0 -10 8 -14 8
-14 0 0 -6 -5 -11 -11 -11 -5 0 -8 4 -5 9 4 5 -3 7 -15 4 -11 -3 -18 -11 -15
-18 4 -10 -2 -11 -25 -5 -24 7 -29 6 -29 -8 0 -15 -2 -15 -11 -2 -8 11 -12 12
-16 3 -2 -7 -9 -13 -14 -13 -6 0 -7 6 -3 12 6 10 5 10 -7 1 -21 -17 -72 -35
-64 -23 4 6 -4 5 -19 -1 -14 -7 -23 -16 -19 -22 3 -6 1 -7 -6 -3 -6 4 -9 12
-6 17 4 5 1 9 -4 9 -6 0 -11 -5 -11 -11 0 -8 -5 -8 -15 1 -12 10 -15 10 -15 0
0 -9 -3 -10 -13 -1 -11 8 -18 7 -31 -7 -9 -10 -13 -22 -9 -27 5 -4 2 -5 -5 -1
-7 4 -9 12 -6 18 4 6 -2 5 -15 -1 -12 -7 -27 -9 -34 -5 -6 4 -9 4 -5 -1 8 -8
-20 -34 -37 -35 -5 0 -3 5 5 10 10 7 11 10 2 10 -7 0 -15 -7 -18 -15 -4 -8
-10 -15 -16 -15 -5 0 -6 4 -3 10 3 6 -1 7 -9 4 -9 -3 -14 -10 -11 -14 6 -9
-25 -23 -33 -15 -3 3 0 5 6 5 7 0 12 6 12 13 -1 6 -10 1 -20 -12 -11 -13 -20
-17 -20 -10 0 8 -6 5 -15 -7 -8 -10 -15 -15 -15 -10 0 5 -8 2 -17 -5 -9 -8
-14 -9 -10 -3 3 6 0 11 -8 11 -8 0 -12 -4 -9 -9 3 -4 0 -8 -5 -8 -20 0 -26 -3
-39 -19 -11 -14 -11 -14 -6 4 6 18 5 18 -15 -3 -19 -19 -25 -21 -39 -10 -10 8
-13 9 -9 1 4 -6 3 -14 -2 -17 -5 -4 -12 -2 -16 3 -9 16 -37 0 -30 -17 3 -9 3
-13 -1 -10 -4 4 -16 2 -28 -4 -20 -10 -20 -10 -6 7 14 17 14 17 -7 5 -12 -8
-20 -18 -17 -22 3 -4 -2 -5 -11 -2 -8 4 -22 1 -30 -6 -8 -7 -21 -10 -30 -6 -8
3 -14 0 -12 -6 1 -6 -4 -13 -12 -16 -8 -3 -11 0 -7 7 5 7 1 9 -8 5 -9 -3 -14
-9 -11 -13 2 -4 -2 -8 -10 -8 -8 0 -12 3 -10 7 2 3 -9 6 -25 6 -16 0 -27 -3
-24 -7 5 -9 -16 -23 -36 -24 -8 0 -14 -5 -13 -12 2 -7 -3 -10 -10 -7 -7 2 -22
-5 -33 -17 -12 -14 -13 -19 -4 -14 10 5 8 1 -4 -13 -16 -18 -22 -20 -34 -9
-13 10 -14 9 -8 -1 5 -9 1 -15 -13 -19 -11 -3 -18 -9 -15 -14 5 -8 -9 -13 -28
-10 -4 0 -5 -5 -2 -13 3 -8 0 -17 -7 -22 -8 -5 -10 -3 -4 7 7 11 6 12 -7 2 -8
-7 -19 -9 -23 -5 -5 4 -5 1 -1 -5 4 -7 2 -21 -3 -30 -6 -10 -11 -12 -11 -5 0
22 -20 13 -21 -10 0 -13 -3 -18 -6 -11 -3 10 -7 10 -18 0 -7 -7 -10 -16 -7
-21 3 -5 -2 -6 -12 -3 -14 6 -16 3 -11 -16 7 -21 6 -21 -7 -3 -14 18 -15 18
-22 -7 -3 -15 -11 -27 -17 -27 -6 0 -7 5 -3 12 4 7 3 8 -4 4 -7 -4 -12 -16
-12 -26 0 -12 -5 -17 -13 -14 -8 3 -20 -2 -27 -10 -7 -9 -17 -13 -23 -9 -6 4
-7 1 -3 -6 6 -9 13 -8 29 6 l22 18 -19 -22 c-10 -13 -22 -20 -27 -18 -4 3 -26
-13 -48 -35 -24 -25 -46 -38 -52 -34 -8 5 -9 3 -5 -5 5 -8 0 -14 -13 -18 -11
-3 -18 -9 -15 -14 3 -5 0 -9 -6 -9 -6 0 -8 -5 -4 -13 5 -8 2 -7 -9 2 -15 12
-17 12 -11 -4 5 -12 4 -16 -3 -12 -6 4 -13 2 -15 -4 -2 -7 -12 -7 -31 0 -23 9
-27 8 -27 -6 0 -14 -2 -14 -15 3 -8 11 -15 14 -15 7 0 -7 -5 -13 -11 -13 -5 0
-7 5 -4 10 3 6 2 10 -3 10 -6 0 -13 -7 -16 -16 -5 -13 -9 -14 -21 -4 -12 10
-15 10 -15 -1 0 -11 -2 -11 -10 1 -9 13 -10 13 -10 0 0 -12 -2 -13 -9 -1 -7
11 -9 11 -14 0 -4 -11 -6 -11 -6 -1 -1 10 -5 9 -17 -3 -12 -12 -19 -13 -30 -4
-11 9 -14 8 -14 -2 0 -8 -6 -5 -15 7 -14 18 -15 18 -9 0 6 -16 4 -17 -14 -7
-17 9 -21 8 -25 -7 -4 -16 -5 -16 -6 1 0 10 -6 15 -11 12 -6 -4 -8 -10 -6 -14
7 -10 -26 -7 -43 4 -10 5 -12 4 -7 -3 4 -7 2 -12 -3 -12 -6 0 -11 4 -11 8 0 5
-7 9 -15 9 -8 0 -12 -4 -9 -9 3 -4 0 -8 -5 -8 -6 0 -11 5 -11 10 0 6 -5 10
-11 10 -5 0 -7 -4 -4 -10 8 -12 -39 -16 -128 -9 -16 1 -33 -4 -38 -12 -7 -12
-9 -12 -9 1 0 13 -1 13 -10 0 -8 -12 -11 -13 -19 -1 -6 9 -11 10 -15 2 -4 -6
-13 -11 -19 -11 -7 0 -6 4 3 10 9 6 10 10 3 10 -6 0 -15 -5 -18 -10 -4 -6 -11
-8 -16 -5 -5 4 -9 1 -9 -5 0 -6 -5 -8 -11 -4 -6 3 -30 7 -54 8 -38 2 -42 0
-32 -13 9 -12 9 -13 -1 -7 -7 4 -26 9 -42 11 -24 3 -28 1 -24 -13 5 -14 4 -14
-4 -3 -6 8 -20 15 -31 16 -15 1 -18 -2 -11 -10 8 -9 1 -12 -24 -9 -20 1 -41 6
-47 10 -9 5 -10 2 -5 -11 7 -18 6 -18 -14 0 -11 10 -20 13 -20 7 0 -7 -5 -12
-11 -12 -5 0 -7 5 -4 10 3 6 1 10 -4 10 -6 0 -11 -8 -11 -17 0 -15 -2 -16 -10
-3 -5 8 -10 10 -10 4 0 -6 -7 -11 -15 -11 -9 0 -14 6 -11 13 3 8 -2 10 -16 6
-14 -3 -19 -1 -14 6 4 8 -1 12 -13 13 -36 2 -38 3 -61 29 -12 14 -18 18 -14
10 4 -8 -3 -5 -15 8 -25 26 -40 30 -20 5 13 -15 12 -15 -8 -3 -12 8 -19 18
-17 22 3 4 -4 8 -15 8 -12 0 -21 5 -21 10 0 6 -9 10 -20 10 -11 0 -20 5 -20
11 0 5 -4 7 -10 4 -5 -3 -10 2 -10 12 0 14 -2 15 -9 4 -7 -11 -10 -9 -16 8 -3
12 -11 19 -16 15 -6 -3 -17 2 -25 12 -9 11 -12 13 -8 5 4 -9 2 -12 -7 -9 -8 3
-15 10 -15 16 -3 24 -4 26 -16 14 -7 -7 -17 -12 -23 -12 -5 0 -3 5 5 10 13 8
12 10 -4 10 -11 0 -16 5 -13 14 4 10 0 12 -14 9 -11 -3 -19 0 -19 7 0 9 -4 9
-17 -1 -11 -10 -14 -10 -9 -2 7 12 -5 18 -28 14 -5 -1 -4 5 3 13 10 12 8 14
-13 12 -14 -2 -23 1 -20 5 3 5 -4 9 -15 9 -12 0 -21 5 -21 10 0 6 -7 10 -16
10 -8 0 -13 4 -9 9 3 6 -4 8 -15 6 -12 -2 -30 6 -45 21 -13 13 -30 24 -38 24
-8 0 -21 8 -28 18 -13 16 -13 16 6 2 18 -14 19 -14 6 2 -10 13 -18 15 -31 8
-22 -12 -40 -13 -22 -1 10 6 9 11 -4 22 -10 8 -15 9 -11 2 4 -6 3 -15 -3 -18
-6 -4 -10 -3 -9 2 1 4 1 16 0 26 -1 15 -4 16 -22 6 -12 -6 -19 -7 -16 -2 3 4
-1 14 -9 21 -11 10 -14 10 -14 0 0 -9 -3 -9 -9 2 -6 8 -7 19 -3 25 3 5 -2 4
-11 -4 -12 -9 -17 -10 -17 -2 0 7 -5 9 -12 5 -8 -5 -9 -2 -4 12 4 10 4 15 0
11 -4 -4 -14 -1 -23 6 -14 10 -14 10 -6 -3 6 -9 2 -7 -9 5 -10 11 -20 19 -22
18 -11 -8 -24 -1 -24 12 0 13 -4 14 -21 4 -12 -6 -19 -7 -16 -2 3 5 2 15 -4
23 -6 11 -9 12 -9 2 0 -7 -5 -10 -10 -7 -6 4 -8 11 -5 16 3 5 -1 6 -9 3 -10
-4 -18 1 -22 10 -5 13 -9 14 -21 5 -8 -7 -13 -8 -12 -3 1 5 1 16 -1 24 -1 11
-4 9 -10 -5 -7 -17 -9 -17 -9 -2 -1 9 -8 17 -16 17 -8 0 -15 5 -15 10 0 6 -10
10 -22 10 -19 0 -20 2 -8 10 12 8 9 10 -13 10 -31 0 -61 22 -49 36 4 5 -1 2
-10 -5 -15 -11 -18 -11 -18 2 0 8 -8 21 -17 28 -17 13 -17 13 -3 -5 14 -18 14
-19 -8 -7 -12 7 -20 16 -17 22 4 5 1 9 -4 9 -6 0 -11 -4 -11 -10 0 -5 -4 -10
-10 -10 -5 0 -6 7 -3 17 4 11 3 14 -5 9 -7 -4 -12 -2 -12 3 0 6 -9 11 -19 11
-10 0 -22 7 -25 16 -3 9 -13 14 -20 11 -8 -3 -20 1 -26 8 -7 8 -16 12 -21 9
-5 -3 -12 2 -15 11 -4 9 -13 14 -21 10 -11 -4 -13 -1 -9 10 3 9 2 13 -4 10 -6
-3 -10 -1 -10 4 0 6 -13 11 -30 11 -16 0 -30 5 -30 11 0 5 5 7 12 3 7 -4 8 -3
4 4 -4 6 -14 8 -24 5 -15 -6 -16 -5 -2 12 8 10 10 16 3 12 -6 -4 -15 -2 -19 4
-4 8 -3 9 4 5 7 -4 12 -3 12 2 0 6 6 9 13 8 6 0 13 3 14 7 3 14 36 35 48 31 6
-3 19 3 30 11 19 15 19 16 -5 5 -24 -11 -24 -11 -5 5 11 9 19 20 18 25 -2 6 8
5 22 0 20 -7 27 -5 38 10 8 11 18 17 23 12 4 -4 3 0 -4 10 -11 14 -9 16 17 14
21 -1 27 1 21 9 -6 7 2 16 23 25 18 8 35 14 39 12 4 -1 12 7 18 18 6 12 16 17
22 14 8 -5 9 -1 4 11 -6 16 -4 16 11 4 14 -12 16 -12 8 0 -6 11 -4 13 8 8 11
-4 22 2 32 16 8 12 19 21 23 21 4 -1 6 3 4 9 -2 6 5 4 15 -3 10 -8 15 -11 11
-6 -4 4 7 20 23 33 16 14 27 28 24 31 -7 7 35 52 49 52 6 0 0 -7 -12 -16 -12
-8 -22 -19 -22 -25 0 -10 44 31 46 44 1 4 2 13 3 20 1 8 4 7 11 -3 8 -12 10
-10 10 10 0 18 3 21 9 12 7 -11 10 -10 15 3 3 9 4 21 1 26 -4 5 1 6 10 3 12
-5 16 -2 13 12 -2 14 3 19 20 18 17 -1 20 2 12 11 -8 10 -8 15 1 21 8 4 9 3 5
-4 -4 -7 -2 -12 3 -12 6 0 11 5 11 11 0 5 4 8 9 4 5 -3 13 0 17 6 4 8 3 9 -4
5 -16 -10 -15 2 2 19 7 8 16 11 20 8 3 -4 6 1 6 10 0 11 7 15 21 12 17 -4 19
-2 8 11 -10 12 -9 13 6 8 12 -5 16 -4 11 4 -6 10 10 23 39 34 5 1 9 6 8 11 -2
4 2 7 8 7 5 0 15 14 21 31 8 23 13 27 19 17 7 -10 9 -9 9 5 0 12 4 16 13 11 9
-6 9 -4 -1 8 -10 13 -10 18 -1 24 8 5 10 3 5 -7 -4 -8 -1 -6 7 3 8 10 18 14
23 10 4 -4 2 1 -5 11 -12 15 -12 17 3 11 11 -4 16 -2 14 7 -2 8 2 13 9 12 6
-1 14 4 17 13 4 10 2 13 -7 8 -6 -4 -2 3 10 15 25 23 38 28 27 9 -4 -7 -3 -9
2 -5 4 4 9 18 9 30 0 14 6 22 17 21 11 -1 15 5 12 19 -2 11 0 17 3 13 10 -10
53 36 53 57 0 12 5 17 14 14 10 -4 14 0 11 12 -2 9 6 28 17 42 l20 24 -16 -27
c-11 -19 -13 -29 -4 -34 6 -4 8 -3 5 3 -4 6 0 16 8 23 8 7 15 20 15 29 0 9 10
21 22 26 27 13 37 37 11 29 -14 -5 -15 -4 -4 4 8 6 23 9 34 7 16 -4 17 -2 5
12 -9 12 -9 15 0 9 7 -4 12 -1 12 9 0 9 9 19 20 22 17 5 18 8 8 21 -11 13 -10
14 7 4 17 -9 21 -7 21 8 0 10 -4 16 -8 14 -4 -3 -8 -1 -8 5 0 5 6 12 13 14 7
3 4 6 -7 6 -14 1 -16 4 -8 14 8 10 6 16 -9 25 -10 7 -19 17 -19 24 0 7 7 3 16
-8 11 -13 10 -10 -2 14 -10 17 -22 32 -27 32 -4 0 -6 4 -3 9 3 4 -6 21 -19 37
-23 26 -30 45 -26 67 1 5 -9 6 -21 2 -18 -5 -20 -4 -8 4 12 9 13 13 2 20 -8 4
-14 12 -15 17 -1 5 -5 8 -9 7 -5 -2 -8 4 -8 13 0 9 5 12 12 8 7 -4 8 -3 4 5
-6 9 -11 9 -22 0 -13 -10 -13 -8 -4 15 5 15 6 25 1 22 -5 -3 -15 2 -22 11 -10
12 -10 14 -1 9 7 -4 12 -1 12 9 0 10 5 13 13 9 7 -5 7 -2 -2 10 -12 15 -12 17
0 14 9 -2 13 4 11 16 -2 11 1 15 7 11 6 -3 11 -1 11 5 0 6 5 8 13 4 9 -6 9 -4
-1 8 -13 17 -1 35 16 24 5 -3 9 1 9 9 0 8 -5 15 -11 15 -6 0 -3 5 7 11 9 5 21
8 25 5 5 -3 9 1 9 9 0 8 -4 12 -9 9 -4 -3 -5 2 -2 11 4 9 13 14 20 11 9 -3 11
0 7 11 -5 13 -2 15 12 10 16 -7 16 -5 4 10 -12 15 -12 16 3 10 17 -6 22 12 6
23 -4 3 2 11 13 19 12 7 18 8 15 3 -3 -6 1 -13 10 -16 11 -4 15 -2 11 8 -4 10
-1 13 8 10 7 -3 16 -12 19 -19 3 -8 13 -11 25 -8 12 3 18 10 15 15 -4 6 5 3
18 -6 22 -15 27 -15 38 -1 7 8 16 12 21 9 5 -3 6 1 3 9 -3 8 10 27 30 45 40
35 45 44 19 36 -10 -3 -6 2 9 10 19 12 25 21 21 34 -6 15 -5 15 10 3 15 -12
17 -12 11 4 -5 13 -4 16 4 11 7 -4 12 -2 12 3 0 6 -5 11 -11 11 -5 0 -7 5 -4
10 4 6 11 7 17 4 7 -5 9 -1 5 9 -4 11 -1 17 8 17 8 0 15 5 15 11 0 7 10 20 22
30 20 18 13 28 -8 12 -5 -5 2 2 16 15 14 12 24 27 23 32 -2 6 3 10 11 10 8 0
13 8 12 18 0 9 5 16 12 14 10 -2 10 2 1 20 -12 22 -11 22 6 8 17 -14 18 -13
13 8 -6 20 -4 22 10 10 9 -7 14 -8 10 -4 -4 5 -2 16 5 24 10 13 9 14 -2 7 -10
-5 -12 -4 -7 3 4 7 14 12 23 12 13 0 14 2 2 17 -10 11 -10 14 -1 9 7 -4 12 -2
12 4 0 6 4 8 10 5 6 -4 7 1 3 11 -4 12 -3 15 5 10 7 -4 12 -1 12 9 0 10 5 13
13 9 8 -5 7 -2 -2 9 -8 10 -11 20 -7 24 3 3 6 1 6 -5 0 -7 4 -12 10 -12 5 0 9
6 7 13 -1 6 4 11 12 9 12 -3 12 -1 1 13 -11 14 -11 16 1 13 8 -2 14 4 13 12
-1 9 7 17 18 17 10 1 16 -2 14 -6 -3 -4 6 -7 19 -7 13 0 21 4 19 8 -3 4 -1 8
5 8 5 0 12 -6 15 -12 5 -10 7 -10 12 0 5 10 9 10 22 0 12 -10 14 -10 8 0 -4 6
-2 12 3 12 6 0 11 -4 11 -10 0 -5 5 -10 11 -10 5 0 7 4 4 10 -3 6 1 7 9 4 9
-3 16 -1 16 5 0 6 6 11 13 11 16 1 50 47 42 59 -3 5 0 13 6 17 7 4 9 3 5 -4
-3 -6 -2 -14 4 -17 6 -4 10 -3 9 2 -1 4 -1 19 0 33 1 20 3 22 11 10 8 -12 10
-11 10 7 0 12 5 25 10 28 6 4 7 12 3 18 -4 7 1 6 11 -2 9 -8 16 -10 15 -5 -4
21 2 35 11 29 6 -3 10 -2 10 4 0 5 -6 12 -12 15 -7 4 -3 4 10 2 18 -4 21 -2
12 9 -8 10 -8 15 1 21 8 5 9 3 4 -7 -8 -12 -6 -12 9 0 9 8 15 20 12 28 -3 7 1
13 8 13 7 0 19 7 26 15 8 9 8 15 2 15 -6 0 -13 -6 -15 -12 -4 -10 -6 -10 -6 0
-1 8 8 16 19 19 11 3 17 10 13 16 -4 6 0 8 11 4 14 -6 15 -3 6 13 -6 11 -7 20
-3 19 19 -3 33 2 33 12 0 5 -6 7 -12 3 -8 -4 -10 -3 -5 2 5 5 14 9 20 9 7 1
11 7 9 14 -2 9 3 11 14 7 15 -6 15 -4 3 11 -9 11 -10 14 -1 9 7 -4 12 -2 12 4
0 6 5 8 11 4 7 -4 7 2 -1 17 -7 13 -9 21 -5 17 11 -10 47 11 42 25 -2 7 5 20
15 29 11 9 17 21 14 26 -7 11 21 25 34 17 5 -3 12 0 16 6 4 8 3 9 -4 5 -7 -4
-12 -3 -12 2 0 6 7 12 15 16 8 3 15 11 14 18 0 10 -2 10 -6 1 -2 -7 -10 -13
-16 -13 -6 0 2 13 18 30 16 16 31 28 33 25 3 -3 11 0 19 6 9 9 17 8 27 0 10
-8 15 -9 18 -1 5 16 40 19 57 6 12 -9 13 -7 8 9 -6 17 -5 18 6 5 16 -19 37
-24 37 -8 0 9 3 8 10 -2 7 -12 12 -12 22 -2 16 16 31 16 23 0 -4 -7 4 -2 16
12 12 14 20 18 17 9 -5 -12 0 -16 22 -15 16 1 28 3 28 6 -1 19 3 30 13 30 5 0
7 -5 3 -12 -4 -7 -3 -8 5 -4 6 4 9 11 6 16 -3 4 2 11 11 14 13 5 14 9 4 21
-10 12 -8 14 8 10 16 -3 20 1 17 17 -4 17 -2 18 12 6 14 -10 15 -10 9 0 -5 8
-1 19 10 28 11 9 12 13 4 9 -8 -4 -4 3 10 15 14 12 19 19 13 15 -7 -3 -13 -1
-13 4 0 6 10 11 22 11 17 0 19 3 10 12 -14 14 12 48 37 48 14 0 14 2 1 10 -11
7 -11 10 -2 10 7 0 10 5 7 10 -4 6 -1 9 7 8 7 -2 12 3 10 10 -2 11 11 17 32
13 5 -1 4 4 -2 11 -8 11 -5 21 14 43 l25 30 -17 -30 -16 -30 20 25 c15 18 18
28 10 38 -8 10 -7 11 8 6 10 -4 16 -4 12 1 -4 4 0 14 10 22 9 8 11 11 3 7 -9
-5 -12 -3 -7 4 4 7 14 12 21 12 9 0 12 6 8 17 -4 11 -3 14 5 9 7 -4 12 -2 12
4 0 6 4 9 9 6 4 -3 6 7 4 22 -4 22 -2 24 7 12 10 -13 11 -11 7 7 -4 16 -1 20
11 16 10 -4 13 -2 8 5 -4 7 0 15 9 18 9 4 14 13 11 21 -4 9 1 17 14 20 11 3
20 12 20 19 0 8 4 14 10 14 5 0 6 7 3 17 -4 11 -3 14 5 9 7 -4 12 -2 12 4 0 6
5 8 13 4 8 -5 8 -2 -2 9 -7 9 -11 18 -7 18 3 1 12 2 19 3 6 1 11 7 9 14 -1 7
5 12 13 12 9 0 12 6 8 15 -3 9 -2 15 3 14 21 -4 28 2 14 11 -13 8 -13 10 2 10
12 0 15 5 11 17 -4 11 -3 14 5 9 7 -4 12 -1 12 9 0 9 5 13 10 10 6 -3 10 -1
10 5 0 6 11 8 25 6 14 -3 23 -1 20 4 -3 6 7 8 24 6 17 -2 32 2 35 8 2 6 5 5 5
-3 1 -11 5 -10 16 5 10 13 14 14 15 5 0 -11 3 -11 17 0 9 8 14 9 10 3 -3 -6 1
-11 9 -11 8 0 13 6 10 14 -3 7 -1 13 3 13 5 0 12 -6 14 -12 4 -10 6 -9 6 1 1
10 4 11 15 2 11 -9 18 -8 31 5 14 15 18 15 26 3 6 -10 9 -10 9 -1 0 6 9 12 19
12 20 0 34 14 37 38 1 7 -3 9 -9 5 -7 -3 -4 3 6 14 9 11 14 24 10 28 -5 5 -1
4 8 -3 14 -10 16 -8 14 19 -1 21 2 28 12 25 11 -5 19 25 14 56 0 4 7 4 17 1
15 -6 16 -5 2 13 -8 10 -10 16 -6 12 15 -13 34 11 28 34 -4 16 -2 19 8 13 10
-6 12 -4 7 8 -4 10 -2 17 4 17 6 0 8 7 5 16 -3 8 -2 13 2 10 5 -3 15 10 22 29
8 20 18 31 24 28 6 -4 5 1 -3 10 -12 15 -12 17 3 11 12 -5 15 -2 9 12 -4 12
-3 15 5 10 8 -5 12 2 12 19 0 18 4 24 13 19 8 -5 7 -2 -2 9 -12 16 -12 17 5
11 10 -4 16 -4 12 1 -4 4 -2 15 5 23 9 13 9 14 0 8 -9 -5 -11 -2 -7 8 3 8 12
12 20 9 12 -4 13 0 4 22 -9 24 -8 26 4 16 11 -9 15 -8 20 4 4 11 2 14 -7 9 -8
-6 -8 -3 1 9 8 9 11 21 7 27 -4 6 -1 9 7 8 7 -2 12 3 10 10 -1 7 5 15 14 19
13 5 13 7 2 14 -9 6 -6 9 12 10 14 0 19 3 13 6 -16 6 -17 29 -1 39 7 4 8 3 4
-4 -11 -18 0 -14 15 5 10 11 10 14 2 9 -14 -8 -17 3 -7 28 3 8 11 13 18 10 9
-3 12 5 11 25 -1 24 1 28 11 20 14 -11 14 6 1 28 -5 8 -1 11 14 8 18 -4 19 -2
7 12 -11 14 -11 16 1 8 11 -6 13 -4 8 9 -4 10 -3 15 3 11 6 -3 10 -1 10 5 0 6
5 8 12 4 7 -4 8 -3 4 5 -4 6 -12 9 -17 6 -5 -3 -6 1 -3 9 3 9 10 13 15 10 5
-3 9 2 9 12 0 14 3 14 15 4 13 -11 14 -10 10 2 -5 12 0 15 20 12 18 -1 25 2
22 10 -3 7 1 13 9 13 7 0 11 -4 8 -9 -9 -15 8 -8 24 10 10 10 14 13 10 7 -4
-6 1 -11 13 -11 10 0 19 7 19 16 0 12 2 12 9 2 6 -11 10 -10 15 4 6 16 8 16
16 4 8 -12 10 -11 11 5 1 11 1 24 0 29 -1 5 4 4 11 -2 11 -8 14 -7 14 9 0 10
-4 19 -8 19 -4 0 4 12 17 26 14 15 25 31 25 37 0 5 -9 -1 -20 -14 l-19 -24 17
37 c9 21 22 37 29 38 7 0 10 6 7 14 -3 8 3 19 14 25 20 11 23 26 9 47 -4 7 -1
11 6 10 6 0 12 2 12 5 0 4 9 16 19 28 11 12 14 21 8 21 -6 0 -13 -6 -15 -12
-4 -10 -6 -10 -6 -1 -1 7 8 17 20 23 17 10 18 14 7 28 -10 12 -10 14 0 8 7 -4
12 -2 12 4 0 6 6 8 13 4 9 -5 9 -4 0 6 -13 15 -1 49 23 63 17 10 18 30 2 22
-7 -4 -2 3 12 15 14 12 19 19 13 15 -9 -4 -11 -1 -7 10 4 9 12 14 19 12 12 -5
14 21 2 41 -6 8 -3 10 9 5 12 -4 15 -3 10 5 -4 7 -2 12 3 12 6 0 11 6 11 14 0
8 6 17 13 19 10 4 10 6 0 6 -21 1 -15 18 8 24 12 3 18 10 15 16 -4 5 2 15 11
21 17 11 17 11 1 6 -24 -7 -23 3 3 25 11 9 20 20 20 23 -3 20 0 26 10 20 8 -4
8 0 0 15 -7 12 -8 21 -4 20 20 -3 27 2 13 11 -11 7 -11 10 -2 10 7 0 10 4 7
10 -3 6 1 7 9 4 9 -3 16 -2 16 4 0 6 -6 13 -12 15 -8 3 -6 6 4 6 10 1 15 7 12
14 -2 7 5 24 16 37 13 15 18 31 14 43 -3 11 -2 17 3 14 5 -4 10 0 10 8 0 8 -5
11 -10 8 -5 -3 -8 0 -5 8 5 14 -1 22 -36 49 -18 14 -19 13 -12 -4 7 -20 7 -20
-15 0 -12 10 -19 13 -15 7 4 -7 3 -13 -3 -13 -5 0 -12 6 -14 13 -4 9 -8 8 -16
-3 -9 -13 -12 -12 -26 5 -15 20 -15 20 -8 0 6 -18 5 -18 -10 -6 -11 9 -17 10
-17 2 0 -7 -10 -10 -25 -7 -17 3 -29 -2 -38 -15 -8 -10 -17 -16 -20 -13 -4 4
-13 1 -22 -6 -8 -7 -15 -9 -15 -5 0 4 -8 -1 -17 -12 -10 -10 -13 -12 -8 -4 9
12 7 12 -13 2 -13 -7 -20 -17 -15 -24 5 -9 3 -9 -8 0 -11 9 -18 8 -33 -3 -10
-7 -22 -11 -27 -9 -4 3 -11 0 -15 -6 -5 -8 -3 -9 6 -4 9 5 11 4 6 -4 -6 -9
-11 -9 -22 0 -12 10 -15 10 -12 -2 2 -8 -3 -13 -9 -11 -7 1 -13 -3 -13 -9 0
-5 -4 -8 -9 -5 -5 3 -21 -1 -37 -9 -15 -7 -32 -11 -37 -8 -6 4 -7 1 -3 -6 6
-8 2 -11 -10 -9 -11 2 -18 -2 -17 -8 1 -6 -8 -11 -20 -10 -14 1 -21 -4 -19
-13 3 -12 1 -12 -14 0 -16 12 -17 12 -11 -4 4 -11 3 -16 -3 -12 -6 3 -15 3
-22 -1 -7 -4 -24 -9 -37 -10 -17 -2 -21 0 -13 5 8 5 13 11 13 15 -3 24 0 28
13 17 11 -9 12 -6 8 15 -3 18 -1 25 6 20 6 -3 13 -2 16 3 4 5 1 13 -5 17 -8 5
-9 3 -4 -6 5 -9 4 -11 -4 -6 -9 6 -9 11 0 22 14 17 23 19 13 2 -5 -7 -3 -8 5
-4 7 5 10 15 7 23 -4 11 0 13 17 9 12 -3 16 -3 10 0 -17 8 -16 31 1 37 9 4 13
16 12 31 -3 21 -1 24 10 15 10 -8 12 -6 9 10 -2 14 1 18 11 14 8 -3 14 -1 14
5 0 6 -6 12 -12 15 -10 3 -10 8 1 18 8 8 11 9 8 3 -4 -7 0 -15 8 -18 12 -4 13
-1 7 12 -5 9 -8 26 -7 38 1 12 -4 21 -12 21 -9 0 -10 -4 -3 -11 5 -5 10 -14
10 -20 0 -5 -6 -1 -14 9 -8 11 -11 26 -8 34 4 10 1 12 -8 6 -10 -6 -12 -4 -6
10 5 15 4 16 -9 5 -9 -7 -15 -9 -14 -4 5 26 -2 36 -21 31 -14 -4 -20 0 -20 11
-1 15 -2 15 -11 0 -5 -10 -15 -18 -22 -18 -8 0 -8 3 1 9 11 7 11 9 -1 14 -8 3
-17 3 -20 0z m-24 -38 c-3 -9 -8 -14 -10 -11 -3 3 -2 9 2 15 9 16 15 13 8 -4z
m537 -165 c0 -5 -5 -10 -11 -10 -5 0 -7 5 -4 10 3 6 8 10 11 10 2 0 4 -4 4
-10z m-3466 -1208 c3 -5 -1 -9 -9 -9 -8 0 -12 4 -9 9 3 4 7 8 9 8 2 0 6 -4 9
-8z m-1086 -137 c-3 -3 -9 2 -12 12 -6 14 -5 15 5 6 7 -7 10 -15 7 -18z m751
-18 c-2 -1 -13 -9 -24 -17 -19 -14 -19 -14 -6 3 7 9 18 17 24 17 6 0 8 -1 6
-3z m2941 -601 c0 -2 -7 -7 -16 -10 -8 -3 -12 -2 -9 4 6 10 25 14 25 6z
m-4856 -536 c-10 -16 -20 -27 -22 -25 -5 5 26 55 34 55 3 0 -3 -13 -12 -30z
m-247 -335 c0 -8 -4 -12 -9 -9 -5 3 -6 10 -3 15 9 13 12 11 12 -6z m-1717
-375 c0 -5 -5 -10 -11 -10 -5 0 -7 5 -4 10 3 6 8 10 11 10 2 0 4 -4 4 -10z
m4490 -934 c0 -2 -8 -10 -17 -17 -16 -13 -17 -12 -4 4 13 16 21 21 21 13z
m-371 -932 c-6 -8 -15 -12 -18 -8 -3 4 0 9 7 11 6 3 9 10 6 15 -4 7 -2 8 5 4
9 -6 9 -11 0 -22z m-589 -629 c0 -2 -10 -9 -22 -15 -22 -11 -22 -10 -4 4 21
17 26 19 26 11z m-5040 -55 c0 -5 -5 -10 -11 -10 -5 0 -7 5 -4 10 3 6 8 10 11
10 2 0 4 -4 4 -10z m4722 -172 c-7 -7 -12 -8 -12 -2 0 14 12 26 19 19 2 -3 -1
-11 -7 -17z m4748 -32 c0 -3 -4 -8 -10 -11 -5 -3 -10 -1 -10 4 0 6 5 11 10 11
6 0 10 -2 10 -4z m630 -670 c0 -3 -4 -8 -10 -11 -5 -3 -10 -1 -10 4 0 6 5 11
10 11 6 0 10 -2 10 -4z m-530 -560 c0 -2 -7 -9 -15 -16 -13 -11 -14 -10 -9 4
5 14 24 23 24 12z m-484 -471 c-11 -8 -25 -15 -30 -15 -6 1 0 7 14 15 32 19
40 18 16 0z m-3925 -582 c13 -16 12 -17 -3 -4 -10 7 -18 15 -18 17 0 8 8 3 21
-13z m-801 -513 c0 -5 -5 -10 -11 -10 -5 0 -7 5 -4 10 3 6 8 10 11 10 2 0 4
-4 4 -10z m1340 -504 c0 -3 -4 -8 -10 -11 -5 -3 -10 -1 -10 4 0 6 5 11 10 11
6 0 10 -2 10 -4z"/>
<path d="M10095 11090 c3 -5 8 -10 11 -10 2 0 4 5 4 10 0 6 -5 10 -11 10 -5 0
-7 -4 -4 -10z"/>
<path d="M9350 11009 c0 -5 5 -7 10 -4 6 3 10 8 10 11 0 2 -4 4 -10 4 -5 0
-10 -5 -10 -11z"/>
<path d="M9297 10993 c-4 -3 -7 -11 -7 -17 0 -6 5 -5 12 2 6 6 9 14 7 17 -3 3
-9 2 -12 -2z"/>
<path d="M8253 10495 c0 -8 4 -12 9 -9 5 3 6 10 3 15 -9 13 -12 11 -12 -6z"/>
<path d="M7990 10369 c0 -5 5 -7 10 -4 6 3 10 8 10 11 0 2 -4 4 -10 4 -5 0
-10 -5 -10 -11z"/>
<path d="M7826 10312 c-3 -5 1 -9 9 -9 8 0 15 4 15 9 0 4 -4 8 -9 8 -6 0 -12
-4 -15 -8z"/>
<path d="M6906 9864 c-5 -14 -4 -15 9 -4 17 14 19 20 6 20 -5 0 -12 -7 -15
-16z"/>
<path d="M6121 9818 c-14 -23 -14 -23 8 -4 22 20 25 26 13 26 -4 0 -13 -10
-21 -22z"/>
<path d="M4861 8761 c-8 -5 -9 -11 -3 -15 5 -3 12 1 16 9 6 17 6 18 -13 6z"/>
<path d="M8849 8453 c-13 -16 -12 -17 4 -4 9 7 17 15 17 17 0 8 -8 3 -21 -13z"/>
<path d="M8375 8199 c-4 -6 -5 -12 -2 -15 2 -3 7 2 10 11 7 17 1 20 -8 4z"/>
<path d="M770 7659 c0 -5 5 -7 10 -4 6 3 10 8 10 11 0 2 -4 4 -10 4 -5 0 -10
-5 -10 -11z"/>
<path d="M3770 7290 c-6 -11 -8 -20 -6 -20 3 0 10 9 16 20 6 11 8 20 6 20 -3
0 -10 -9 -16 -20z"/>
<path d="M7325 6980 c-3 -6 1 -7 9 -4 18 7 21 14 7 14 -6 0 -13 -4 -16 -10z"/>
<path d="M1655 6350 c-3 -5 -1 -10 4 -10 6 0 11 5 11 10 0 6 -2 10 -4 10 -3 0
-8 -4 -11 -10z"/>
<path d="M1420 4669 c0 -5 5 -7 10 -4 6 3 10 8 10 11 0 2 -4 4 -10 4 -5 0 -10
-5 -10 -11z"/>
<path d="M9143 4655 c0 -8 4 -12 9 -9 5 3 6 10 3 15 -9 13 -12 11 -12 -6z"/>
<path d="M6840 4501 c0 -6 4 -13 10 -16 6 -3 7 1 4 9 -7 18 -14 21 -14 7z"/>
<path d="M8725 4320 c-3 -6 1 -7 9 -4 18 7 21 14 7 14 -6 0 -13 -4 -16 -10z"/>
<path d="M7627 4149 c7 -7 15 -10 18 -7 3 3 -2 9 -12 12 -14 6 -15 5 -6 -5z"/>
<path d="M10553 3608 c-15 -20 -25 -38 -20 -38 3 0 12 11 21 25 17 26 16 35
-1 13z"/>
<path d="M10305 3400 c-3 -6 1 -7 9 -4 18 7 21 14 7 14 -6 0 -13 -4 -16 -10z"/>
<path d="M1870 3336 c0 -2 7 -7 16 -10 8 -3 12 -2 9 4 -6 10 -25 14 -25 6z"/>
<path d="M2939 2993 c-13 -16 -12 -17 4 -4 16 13 21 21 13 21 -2 0 -10 -8 -17
-17z"/>
<path d="M5386 2875 c4 -8 11 -15 16 -15 6 0 5 6 -2 15 -7 8 -14 15 -16 15 -2
0 -1 -7 2 -15z"/>
<path d="M6513 2755 c0 -8 4 -12 9 -9 5 3 6 10 3 15 -9 13 -12 11 -12 -6z"/>
<path d="M5913 2695 c0 -8 4 -12 9 -9 5 3 6 10 3 15 -9 13 -12 11 -12 -6z"/>
<path d="M1805 2570 c-3 -5 -1 -10 4 -10 6 0 11 5 11 10 0 6 -2 10 -4 10 -3 0
-8 -4 -11 -10z"/>
<path d="M2495 2330 c-3 -5 -1 -10 4 -10 6 0 11 5 11 10 0 6 -2 10 -4 10 -3 0
-8 -4 -11 -10z"/>
<path d="M2195 1883 l-17 -28 23 22 c12 12 20 25 17 28 -3 3 -13 -7 -23 -22z"/>
<path d="M3617 1883 c-4 -3 -7 -11 -7 -17 0 -6 5 -5 12 2 6 6 9 14 7 17 -3 3
-9 2 -12 -2z"/>
<path d="M1025 1540 c-3 -5 -1 -10 4 -10 6 0 11 5 11 10 0 6 -2 10 -4 10 -3 0
-8 -4 -11 -10z"/>
</g>
</svg>
